<svg version="1.1" id="Layer_1" xmlns="http://www.w3.org/2000/svg" xmlns:xlink="http://www.w3.org/1999/xlink" x="0px" y="0px"
	 width="100%" viewBox="0 0 1024 1024" enable-background="new 0 0 1024 1024" xml:space="preserve">
<path fill="#000000" opacity="1.000000" stroke="none" 
	d="
M861.300293,314.999176 
	C861.283081,388.830048 861.261780,462.160950 861.247986,535.491821 
	C861.247437,538.324524 861.268127,541.159180 861.373901,543.989380 
	C861.453247,546.112488 862.242615,547.743774 864.406555,548.696655 
	C872.488037,552.255371 876.354614,558.810120 876.034668,567.355652 
	C875.719055,575.788269 870.840027,581.132385 862.671326,583.331726 
	C861.410889,583.671082 860.386414,584.183594 860.434265,585.569580 
	C860.666870,592.303406 859.057556,599.156372 861.788025,605.953308 
	C859.090515,607.924316 856.788269,610.763977 853.174927,606.739258 
	C851.985107,605.413879 849.670837,606.732544 848.067566,607.643677 
	C833.298035,616.036072 818.489502,624.356628 803.322693,632.018860 
	C801.139282,633.121826 799.890076,634.718933 798.957703,637.103699 
	C797.513672,640.796997 795.308350,644.194580 793.400391,647.703735 
	C792.118103,650.062134 790.393555,651.742676 787.420105,651.161011 
	C784.064819,650.504700 785.045105,647.683838 784.683350,645.545410 
	C784.574036,644.899170 784.527954,644.242188 784.381226,642.966980 
	C777.785583,646.202515 771.399719,649.156433 765.179138,652.424866 
	C753.087952,658.777588 741.103882,665.334167 729.046021,671.751099 
	C723.670959,674.611572 722.925842,674.278687 720.076172,667.986755 
	C739.923340,657.372253 759.926880,646.949829 779.186340,635.596069 
	C779.146179,633.101196 777.294983,632.529053 776.239075,631.337341 
	C774.668579,629.564819 771.350891,628.065186 773.023438,625.361267 
	C774.610474,622.795410 777.563049,624.876099 779.895508,625.333374 
	C781.489929,625.645996 782.934021,626.753296 784.942078,626.190918 
	C787.347107,621.387085 786.731201,615.341797 790.336670,609.960144 
	C795.016418,616.300232 793.893066,623.104248 794.572937,629.742371 
	C810.561340,618.781372 828.151001,611.569275 845.251831,602.167542 
	C830.506287,595.142273 816.877991,587.026855 803.606018,578.508972 
	C795.374939,586.024658 785.161316,589.552063 776.084595,594.981262 
	C772.221741,597.291809 768.063354,599.205505 764.828491,602.351135 
	C761.934387,605.165344 759.315002,605.331543 756.753601,602.398010 
	C753.617798,598.806641 751.189636,599.865723 747.558777,602.198730 
	C740.153076,606.957275 732.250061,610.971497 724.413269,615.024353 
	C691.412170,632.091125 658.802673,649.850037 626.649597,668.484192 
	C604.460693,681.343567 581.692200,693.201172 559.237305,705.605347 
	C555.027466,707.930847 549.774780,709.408508 550.000610,716.022522 
	C550.065247,717.915100 547.505127,718.424866 545.883484,719.239014 
	C537.551086,723.422791 529.221802,727.612915 520.910645,731.838623 
	C519.759949,732.423706 518.403015,732.856873 517.823059,734.815552 
	C522.565796,738.153564 527.610168,741.248108 532.931274,743.881653 
	C538.752869,746.763000 544.671570,749.430237 549.654358,753.760864 
	C552.490112,756.225586 554.999329,756.581177 557.304626,752.637573 
	C559.211487,749.375549 561.747437,746.357483 566.185120,746.148743 
	C568.626282,748.825317 566.096741,752.471985 568.329224,755.458191 
	C571.970215,753.514771 575.604980,751.616211 579.201599,749.648071 
	C599.512817,738.533630 619.803894,727.382324 640.137573,716.309326 
	C642.092468,715.244812 644.139832,713.409668 646.596191,715.016235 
	C649.496643,716.913330 648.848022,721.022156 645.268066,722.943298 
	C627.947205,732.238342 610.559814,741.409668 593.259460,750.742493 
	C586.122498,754.592590 579.144470,758.737427 571.847534,762.888550 
	C575.331482,766.620056 581.261414,767.764893 582.486206,773.381104 
	C580.274658,774.924561 578.538879,773.820679 576.873962,773.307434 
	C571.142456,771.540344 565.495544,769.727173 559.305420,770.202271 
	C556.119019,770.446777 553.276672,769.308899 553.711365,765.040222 
	C553.868713,763.494446 553.532532,762.105652 551.814575,761.364197 
	C540.437439,756.454224 530.666931,748.768677 519.880981,742.835815 
	C517.865540,741.727173 515.747498,740.805176 513.180908,739.555664 
	C512.962402,746.485962 513.293701,752.927429 512.375061,759.302612 
	C512.070068,761.419128 511.900238,763.330627 509.013947,763.169556 
	C506.312531,763.018677 505.912354,761.253784 505.708130,759.076294 
	C505.071045,752.282776 504.757751,745.490540 505.881653,738.298340 
	C495.181702,743.916504 486.303467,751.321533 475.889435,756.121216 
	C473.326996,757.302185 470.689392,758.339111 468.031982,759.290405 
	C464.270966,760.636597 463.806885,762.725769 466.424744,765.608398 
	C467.966553,767.306030 469.582184,768.936707 471.716187,771.176392 
	C466.707764,771.844727 462.589508,770.712952 458.692383,769.378540 
	C455.404144,768.252563 452.675201,768.569702 449.600555,769.889221 
	C444.862457,771.922729 439.953888,773.561340 435.104706,775.332153 
	C433.405853,775.952454 431.695953,776.789795 429.123260,775.437927 
	C431.857910,769.221008 438.517731,767.499878 443.251953,762.951111 
	C436.990021,759.620911 430.960266,756.230408 424.772095,753.159058 
	C408.510101,745.087891 392.172241,737.169678 375.879608,729.160034 
	C370.621490,726.575012 365.559814,723.651245 361.742188,719.075134 
	C360.549469,717.645447 358.322815,716.129150 359.869232,713.947388 
	C361.473846,711.683594 363.500580,713.350403 365.205078,714.217407 
	C384.791443,724.181213 404.383087,734.135071 423.920776,744.193726 
	C432.011047,748.358887 440.327362,752.083862 448.423035,757.456299 
	C448.996277,753.819824 449.453125,750.921631 450.004364,747.424744 
	C454.398712,747.725586 458.747803,747.566650 461.669617,751.544678 
	C463.279480,753.736511 464.855621,753.877319 467.216919,752.830322 
	C478.965210,747.620544 489.704041,740.586792 500.999542,734.697327 
	C500.766937,732.605469 499.261292,731.938843 498.015747,731.344177 
	C489.300537,727.183411 481.284149,721.620239 472.129425,718.362305 
	C469.751312,717.515991 467.901886,716.509216 467.844330,713.611877 
	C467.799011,711.332825 465.802856,710.780334 464.205109,709.950928 
	C427.541473,690.918518 390.947418,671.750366 354.185333,652.910095 
	C324.239166,637.562744 294.078796,622.633667 264.045044,607.456482 
	C259.142120,604.978882 254.274643,602.380554 249.632538,599.454590 
	C246.417282,597.427917 243.586853,597.495361 241.080063,600.021851 
	C236.584137,604.553223 232.834091,603.795776 227.782913,600.228943 
	C218.819534,593.899536 209.084335,588.689941 199.222565,583.794678 
	C196.586853,582.486450 193.631973,581.380615 193.186493,577.091980 
	C178.286057,587.066956 162.422226,593.621887 147.072098,601.869385 
	C148.080399,603.765991 149.882278,604.236877 151.430222,604.981750 
	C165.383377,611.695801 179.568024,617.928467 193.077225,625.557922 
	C198.855103,628.821106 199.667923,628.446777 202.401932,622.411804 
	C203.827011,619.266113 206.368515,619.848022 207.403488,621.643921 
	C210.244339,626.573364 214.052048,628.030090 219.144287,625.668518 
	C219.902573,629.074768 217.751282,629.626099 216.499191,630.784851 
	C215.311035,631.884460 213.626282,632.485352 212.798782,634.741394 
	C217.471695,637.413574 222.048965,640.403076 226.934158,642.752136 
	C239.550781,648.819092 251.919632,655.352051 264.239655,661.984863 
	C265.845581,662.849548 267.298889,663.993164 268.856354,664.953308 
	C272.781311,667.373047 272.445343,669.965637 269.092529,672.977173 
	C262.253754,670.367432 256.109528,666.344543 249.591934,663.085510 
	C238.268188,657.423340 226.953705,651.742371 215.661362,646.017883 
	C212.345184,644.336792 210.018372,643.856201 208.738144,648.586304 
	C207.635040,652.661865 204.911682,653.058105 202.292145,649.723267 
	C198.909668,645.417053 193.643616,642.026001 194.587631,635.323120 
	C194.777786,633.972961 193.613358,633.366028 192.464752,632.894043 
	C177.032959,626.552490 162.586075,618.244446 147.842789,610.527527 
	C146.972015,610.071777 146.058197,609.698242 144.723755,609.083374 
	C144.291336,611.373413 143.916306,613.407776 143.520523,615.438110 
	C143.262787,616.760315 143.028976,618.322693 141.427963,618.484985 
	C139.490524,618.681274 139.143265,616.925354 138.622116,615.530823 
	C136.817047,610.700684 136.540848,605.832336 138.009186,600.840881 
	C138.899292,597.815063 139.516632,594.741943 139.779892,591.551514 
	C140.357391,584.552307 140.028442,579.056458 131.441696,576.288452 
	C124.980057,574.205505 123.031166,567.417542 122.752899,560.642334 
	C122.500061,554.486267 126.750938,551.242920 131.228806,549.453369 
	C137.244186,547.049438 137.907562,543.423523 137.853851,537.583984 
	C137.507431,499.921753 137.653992,462.254944 137.652969,424.589630 
	C137.651840,382.590942 137.666992,340.592255 137.671295,298.593567 
	C137.671738,294.373444 137.949753,289.914062 131.573578,291.233246 
	C130.392365,288.409485 132.167938,286.707458 132.967880,284.851166 
	C134.282883,281.799622 136.090530,278.949402 137.271271,275.854401 
	C138.264984,273.249603 137.752029,271.074524 134.457291,270.106201 
	C127.323372,268.009369 123.692261,262.662903 123.483727,255.626373 
	C123.275352,248.595428 126.723785,243.033310 133.434860,240.253510 
	C137.125458,238.724823 139.499741,236.830246 140.013657,232.514725 
	C140.396332,229.301178 141.981186,227.743790 145.350830,230.799423 
	C149.813797,234.846497 155.328201,237.505005 160.848068,239.784760 
	C172.099182,244.431549 182.914597,249.964096 193.773743,255.403717 
	C196.831314,256.935333 198.996384,256.409088 201.486969,254.487518 
	C203.983734,252.561172 204.964340,250.563828 204.384918,247.233902 
	C203.648285,243.000305 204.497940,238.429062 203.426147,234.326706 
	C199.805588,220.468826 202.727997,206.441406 201.763321,192.536179 
	C201.588928,190.022141 201.175659,186.889038 205.366364,186.784943 
	C209.177383,186.690292 210.927383,188.758789 211.054337,192.239014 
	C211.272995,198.232376 211.268402,204.234100 211.341064,210.232498 
	C211.367004,212.372620 211.345230,214.513321 211.345230,217.430008 
	C217.869644,214.758041 223.715439,212.211273 229.670959,209.954041 
	C246.528152,203.564880 262.369293,194.986938 278.670654,187.401443 
	C280.330627,186.629028 282.017212,185.909119 283.715881,185.225540 
	C287.523529,183.693268 290.564026,184.226303 292.172119,188.488571 
	C291.922333,190.377533 290.176331,190.591171 288.921936,191.200180 
	C270.344788,200.219513 251.721100,209.143143 233.158646,218.192398 
	C229.122955,220.159790 225.264801,222.497025 221.360153,224.725693 
	C218.085220,226.594925 217.650269,228.594177 220.875381,231.161942 
	C223.069672,232.908966 226.066254,234.105637 226.892670,237.645081 
	C220.538437,237.780472 216.543076,232.556473 210.654251,231.763000 
	C209.415924,237.158249 208.981567,242.322266 209.701340,248.210999 
	C215.894363,245.260071 221.915024,242.861618 227.425919,239.601486 
	C231.154434,237.395752 234.405380,237.288223 237.528610,239.698151 
	C243.290497,244.144043 248.480484,242.954941 254.497452,239.811722 
	C294.354370,218.990555 334.350586,198.440796 374.074524,177.358643 
	C403.936371,161.510468 434.769226,147.431061 464.153290,130.771393 
	C477.102203,123.429863 490.074768,116.037132 503.101318,108.780235 
	C504.658508,107.912766 505.759644,106.847672 505.760345,104.911636 
	C505.761932,100.578896 505.811493,96.246101 505.857300,91.913490 
	C505.872467,90.479317 505.209412,89.455826 504.233795,88.427620 
	C499.391144,83.323837 501.454529,72.033554 507.765381,68.824249 
	C510.422668,67.472916 512.701721,68.545578 513.564331,70.901245 
	C515.595703,76.448494 517.745667,81.943008 514.715149,88.134865 
	C511.915649,93.854713 513.255920,100.243980 513.800049,106.309647 
	C514.003845,108.581268 516.585388,109.853951 518.715698,110.949203 
	C527.750122,115.594093 537.430664,119.371017 545.536377,125.296440 
	C550.926392,129.236618 556.247253,133.038712 562.085327,136.290710 
	C592.791382,153.395050 623.983093,169.589569 654.995361,186.119644 
	C687.625916,203.512253 720.305298,220.813583 752.873535,238.321899 
	C756.380859,240.207413 759.285889,240.220505 762.702698,238.561096 
	C769.842957,235.093353 777.351074,232.290146 783.984314,226.458252 
	C777.999695,222.816452 772.707520,219.202454 767.073914,216.237030 
	C744.522827,204.366608 721.836060,192.754059 699.272766,180.906540 
	C694.715393,178.513519 690.410095,175.612732 686.126282,172.740753 
	C684.513611,171.659561 681.958984,170.682922 683.779297,167.718277 
	C685.417480,165.050186 687.392395,165.333176 689.737732,166.591980 
	C699.715393,171.947144 709.664001,177.360107 719.720032,182.564865 
	C739.978760,193.050308 760.300232,203.414505 780.597778,213.824966 
	C781.485229,214.280106 782.371948,214.796036 783.707947,214.263107 
	C785.541016,212.176987 784.659668,209.379837 784.749817,206.833755 
	C784.956116,201.006958 784.850769,195.169830 784.981445,189.339340 
	C785.039246,186.759476 785.948608,184.903870 789.088867,184.815506 
	C792.114746,184.730362 793.114441,186.131348 793.484802,188.924622 
	C794.718140,198.226196 794.430237,207.567413 794.158142,216.879257 
	C794.021118,221.565781 794.238403,225.450928 799.398987,227.217758 
	C799.902893,227.390305 800.197510,228.174057 800.854614,229.012802 
	C800.307983,229.361481 799.924011,229.784454 799.478821,229.863831 
	C792.043274,231.189819 792.103027,231.175659 792.689819,239.093811 
	C792.981567,243.031143 793.437866,247.114899 789.305054,249.988846 
	C790.511414,250.588837 791.740601,250.868896 792.489929,251.624771 
	C799.033447,258.225555 805.368713,255.517349 812.284302,251.948120 
	C825.448242,245.154068 838.683716,238.443756 852.504333,233.029877 
	C858.769531,230.575653 859.902222,231.395905 860.578369,238.244080 
	C867.161804,241.473724 873.046570,245.402832 873.926880,253.518188 
	C874.724609,260.872559 871.595093,266.532654 865.477844,270.408447 
	C862.458374,272.321503 862.857361,274.844177 863.597839,277.401733 
	C864.334595,279.946167 865.576538,282.343018 866.576172,284.812958 
	C869.239746,291.393707 869.000549,291.809204 861.297485,292.371765 
	C861.297485,299.675873 861.297485,307.087524 861.300293,314.999176 
M476.750732,370.663177 
	C479.121490,371.881226 481.499268,373.085876 483.861847,374.319580 
	C494.602631,379.928192 494.845032,380.226074 504.131897,372.545563 
	C508.121307,369.246216 511.197021,369.976227 514.832886,372.092163 
	C516.270203,372.928589 517.679077,373.845093 518.979736,374.877808 
	C521.099976,376.561279 522.954102,376.361908 525.328308,375.054291 
	C556.841492,357.698181 588.459534,340.532135 619.961182,323.155212 
	C644.028564,309.879150 668.764160,297.841034 692.477844,283.913788 
	C694.283142,282.853516 697.146729,282.592560 697.213013,280.056061 
	C697.279053,277.531006 694.537476,276.930084 692.689697,275.945770 
	C671.518066,264.667999 650.153137,253.740402 629.176941,242.111298 
	C591.731201,221.351669 552.867065,203.286942 515.684753,182.041031 
	C514.671265,181.461914 513.605713,180.946167 512.096741,181.881363 
	C512.281799,183.503662 512.414673,185.296448 512.702209,187.064072 
	C513.403564,191.376236 513.208191,195.701065 512.993225,200.027695 
	C512.850830,202.891663 510.916290,203.460281 508.514374,203.549683 
	C505.751251,203.652557 505.688995,201.768066 505.708405,199.869720 
	C505.759491,194.876648 505.719879,189.874313 506.043091,184.896866 
	C506.155670,183.162949 506.557190,181.470459 505.131622,180.292511 
	C503.282288,178.764389 501.637573,180.313660 500.157715,181.203934 
	C478.149902,194.443405 454.747223,205.045197 432.090393,217.055161 
	C396.040009,236.164810 359.445984,254.248566 323.104156,272.809814 
	C321.447571,273.655884 319.151367,273.907440 318.749298,276.168243 
	C321.927795,281.533630 328.238800,275.941193 332.407318,279.981934 
	C324.844696,284.576599 317.171173,279.887817 309.648224,281.840057 
	C310.297363,282.917572 310.487579,283.705383 310.958893,283.948700 
	C366.156799,312.443970 421.403748,340.844971 476.750732,370.663177 
M382.421387,535.984314 
	C421.763519,555.110168 460.524017,575.438843 500.564758,593.120483 
	C501.474670,593.522339 502.329712,594.085266 503.484558,593.630432 
	C505.293335,591.547729 504.650391,588.936768 504.654175,586.512695 
	C504.718597,545.354431 504.693817,504.195892 504.837585,463.037964 
	C504.849213,459.712616 503.690643,458.023224 500.875885,456.419525 
	C494.486053,452.778992 486.325684,452.289612 481.595947,445.636993 
	C481.119293,444.966522 479.950867,444.467957 478.816864,445.185455 
	C478.114044,446.997864 479.526245,448.267609 480.179321,449.691864 
	C482.832031,455.476959 485.001007,461.410065 485.669403,467.775635 
	C486.044830,471.351257 484.313721,472.702362 481.291595,471.088593 
	C475.826202,468.170135 470.158142,465.863190 464.106049,464.556335 
	C461.769714,464.051819 460.936432,462.713623 460.689178,460.382233 
	C459.516449,449.322937 451.180206,441.191193 440.263824,440.109955 
	C437.159332,439.802490 434.499664,440.425720 433.027191,443.318085 
	C429.704803,449.844269 428.935150,456.792145 429.520874,464.202850 
	C434.543243,463.978424 439.016083,462.922943 443.424408,464.346558 
	C463.696869,470.893341 478.086517,483.711426 485.081268,504.073273 
	C488.866516,515.092163 489.299652,526.508179 488.381500,538.104065 
	C486.979370,555.812500 473.715698,565.244995 456.634247,560.262451 
	C429.508942,552.350342 406.570404,522.652710 405.773621,494.255005 
	C404.988281,466.264679 406.391357,438.299133 406.938965,410.324738 
	C407.012726,406.558014 407.649323,402.802307 408.103577,398.258301 
	C428.108704,409.476166 448.681763,418.110657 468.382141,429.955200 
	C469.533691,422.378204 468.857178,416.058716 468.801178,409.756348 
	C468.785614,408.006226 467.555969,407.137360 466.196075,406.393738 
	C460.935181,403.516907 455.807495,400.358398 450.394562,397.804016 
	C419.196014,383.081116 389.213165,366.000702 358.397766,350.538025 
	C326.838440,334.701996 295.311829,318.800781 263.745880,302.978027 
	C259.442291,300.820801 257.140533,301.859619 257.566315,306.178284 
	C258.276886,313.386078 254.525970,316.967560 248.609344,319.385254 
	C245.373489,320.707458 242.139526,322.036957 238.935898,323.434631 
	C235.282761,325.028442 231.864670,324.620209 228.418289,322.705261 
	C224.490707,320.523010 220.463058,318.516571 216.440308,316.511169 
	C212.987839,314.790039 211.426926,316.230438 211.416382,319.792725 
	C211.402100,324.623505 211.385040,329.456909 211.518204,334.285065 
	C212.469147,368.767212 212.403061,403.255768 211.733444,437.736115 
	C211.515976,448.935486 210.963928,448.924164 220.761581,453.808472 
	C221.208557,454.031311 221.646667,454.273438 222.079407,454.523041 
	C225.094543,456.261871 226.408630,454.930695 226.660339,451.912354 
	C226.798508,450.255463 226.737366,448.582489 226.782196,446.917175 
	C226.956955,440.424774 227.046677,433.927795 227.380539,427.443451 
	C227.465042,425.802216 227.374237,423.350677 230.157593,423.577148 
	C233.677582,423.863525 236.060257,421.875214 238.644760,419.994537 
	C244.976303,415.387177 251.537277,411.126709 258.340973,407.227295 
	C266.720215,402.424866 275.006287,397.459351 283.315857,392.536011 
	C288.038727,389.737762 290.524384,385.298035 290.353760,380.067017 
	C289.971680,368.357025 284.823395,359.342651 273.968018,354.030884 
	C266.355682,350.306061 261.378693,352.955322 260.233124,361.480011 
	C259.759216,365.006622 259.335754,368.540009 258.810883,372.690674 
	C251.372787,368.169067 243.998642,365.172272 236.617233,362.200897 
	C234.171478,361.216370 233.450348,359.533234 233.893799,357.060394 
	C234.833466,351.820526 235.385925,346.488739 236.670532,341.337616 
	C239.879990,328.468140 252.839355,320.953339 265.353424,325.234222 
	C291.298859,334.109741 308.305023,351.706238 313.604431,378.914337 
	C315.469543,388.490234 316.523529,398.863190 309.675720,407.749969 
	C306.029236,412.482178 301.357361,415.898987 296.303680,418.843842 
	C286.520233,424.544739 276.657928,430.110199 266.843903,435.758850 
	C266.045715,436.218292 264.852386,436.489105 265.200104,437.968231 
	C266.402985,439.396515 268.270203,439.763855 269.900818,440.515106 
	C282.745270,446.433105 295.576477,452.381775 308.482361,458.163391 
	C312.635376,460.023895 314.644165,462.701385 314.362213,467.429474 
	C314.035431,472.909058 314.327118,478.423370 314.246887,483.921143 
	C314.224213,485.474701 314.819153,487.336548 312.849640,488.376770 
	C288.388763,474.686005 263.240936,462.357635 238.475876,449.528778 
	C236.986694,451.503784 237.613007,453.074829 237.343964,454.503204 
	C236.254913,460.285400 238.559067,463.653168 244.036621,465.940521 
	C250.003601,468.432220 255.510529,472.004089 261.308929,474.924561 
	C301.465912,495.150909 341.254974,516.106812 382.421387,535.984314 
M721.714844,310.268738 
	C683.921631,332.105652 645.124817,352.094543 606.692627,372.755219 
	C589.674805,381.903748 572.741577,391.209900 555.710327,400.332947 
	C551.750671,402.453918 549.843750,405.180908 550.286499,409.895538 
	C550.783447,415.187317 550.394104,420.556000 550.696167,425.873871 
	C551.120544,433.342346 550.030945,439.809296 541.848083,442.745575 
	C538.707275,443.872620 538.084167,446.460999 538.092651,449.596405 
	C538.205200,491.257050 538.226868,532.917908 538.309326,574.578674 
	C538.312500,576.162231 537.812866,577.951660 539.554138,579.435852 
	C543.462158,579.072632 547.077087,577.293213 550.479858,575.359680 
	C595.664429,549.684937 642.199646,526.518127 687.668274,501.363373 
	C709.526611,489.270660 731.444275,477.279419 753.326355,465.226013 
	C757.177368,463.104736 758.871643,460.966400 758.847717,456.427795 
	C758.643921,417.767029 758.837708,379.104095 758.605591,340.443604 
	C758.490417,321.263214 761.853577,326.477753 744.876343,316.987885 
	C740.584229,314.588654 738.023254,311.303619 737.841492,306.306763 
	C737.805786,305.325806 737.813477,304.270599 736.158386,303.364868 
	C731.332886,304.332306 726.860962,307.167511 721.714844,310.268738 
M450.391113,659.035706 
	C457.757538,662.915405 464.954407,667.144409 472.694153,670.266296 
	C477.653229,672.266541 481.964752,669.515320 481.942993,664.240295 
	C481.855743,643.083130 483.252594,621.949219 482.827209,600.782715 
	C482.743866,596.634705 481.121613,594.449890 477.575897,592.733398 
	C466.032867,587.145203 454.609222,581.311157 443.119843,575.611511 
	C401.485748,554.957703 359.803772,534.400024 318.219543,513.646362 
	C293.332092,501.225647 268.600922,488.492096 243.780853,475.936005 
	C238.396378,473.212067 237.175034,473.834564 237.157043,479.657837 
	C237.101959,497.487366 237.219406,515.317444 237.260529,533.147278 
	C237.265320,535.219482 237.443283,537.188232 239.625610,538.230896 
	C243.372055,540.020935 246.631058,542.650513 250.652512,544.028748 
	C260.032135,547.243347 260.164490,547.369263 260.031830,557.500916 
	C259.975891,561.773804 261.547974,564.118103 265.391205,565.952820 
	C276.660431,571.332642 287.752380,577.084229 298.906952,582.703613 
	C349.182526,608.031250 399.455750,633.363586 450.391113,659.035706 
M853.829346,595.682983 
	C855.504883,588.731140 855.275452,583.520142 846.932556,580.040100 
	C839.163269,576.799255 837.831665,568.710266 838.763062,560.729187 
	C839.525085,554.199890 843.980347,550.693054 849.757874,549.211182 
	C853.662354,548.209717 853.737183,546.007446 853.551270,542.971741 
	C853.235901,537.822449 852.896362,532.663635 852.888184,527.508240 
	C852.815063,481.356171 852.762634,435.203888 852.805969,389.051819 
	C852.835022,358.069855 852.332397,327.077118 853.705811,296.115265 
	C853.968689,290.189789 851.203186,289.872070 846.311951,291.010620 
	C846.588440,286.733582 848.446472,283.573364 850.182739,280.478973 
	C852.363586,276.592194 853.217346,274.186432 848.105591,271.127991 
	C837.226257,264.618744 836.886414,253.465256 846.441528,245.537369 
	C846.540283,245.455414 846.354492,245.030457 846.323914,244.877548 
	C832.104553,250.190170 819.146912,258.205963 805.276978,264.299500 
	C802.709473,265.427490 801.898499,267.108551 801.956787,269.734619 
	C802.182434,279.894348 802.058960,290.069000 802.584778,300.211212 
	C802.783630,304.045197 801.908875,306.365509 798.212646,307.341431 
	C795.079468,308.168762 794.028198,310.191681 794.281921,313.297333 
	C795.123718,323.601135 794.300537,333.912506 794.305115,344.220917 
	C794.326111,391.699310 794.047363,439.179291 795.028503,486.652588 
	C795.310364,500.294342 794.010986,513.936096 795.164856,527.585449 
	C795.415833,530.553772 795.808899,532.713562 799.242554,533.336853 
	C802.024536,533.841980 803.718933,535.599426 803.138306,538.694153 
	C801.430969,547.792908 802.655762,556.971680 802.328369,566.106995 
	C802.260742,567.991882 802.467468,569.641174 804.325562,570.855713 
	C819.258728,580.616821 835.330383,588.372559 850.747131,597.279602 
	C851.884338,597.936584 853.328003,598.591736 853.829346,595.682983 
M200.747009,407.500000 
	C200.748596,376.337128 200.715607,345.174194 200.802322,314.011566 
	C200.811539,310.696808 200.338715,308.106628 196.764526,306.984802 
	C193.755585,306.040375 193.570114,303.608032 193.673981,300.934631 
	C194.055374,291.117310 194.294632,281.294434 194.689255,271.477722 
	C194.839264,267.746216 193.522171,265.230377 190.053223,263.482300 
	C184.256073,260.561066 178.719009,257.125732 172.937469,254.170975 
	C167.863327,251.577728 162.730942,249.011307 156.723236,247.412445 
	C161.227219,258.528503 159.981552,265.327148 152.151794,269.082153 
	C147.526718,271.300293 147.096527,273.851471 148.629013,278.035858 
	C150.294662,282.583862 151.621002,287.256134 153.059830,291.763123 
	C150.595612,292.836975 148.887192,290.823120 146.969147,291.946655 
	C145.628098,293.390686 146.071594,295.321747 146.008026,297.085297 
	C145.756317,304.069611 145.469498,311.057281 145.447495,318.044495 
	C145.236450,385.029907 144.674896,452.016357 145.943878,518.998535 
	C146.066925,525.493103 146.361526,532.034790 145.747986,538.475708 
	C145.319504,542.973877 145.830444,545.480164 150.387955,547.831970 
	C161.190399,553.406311 163.772797,564.831604 156.753372,573.295166 
	C153.630249,577.060852 149.464844,579.449768 144.480576,580.376099 
	C144.344955,585.366882 143.927475,590.121765 144.739761,595.155945 
	C145.652512,594.958313 146.364944,594.984741 146.861542,594.670227 
	C160.826965,585.826721 176.238281,579.723999 190.589981,571.608765 
	C193.128860,570.173218 194.005371,568.359375 193.960373,565.566345 
	C193.815399,556.569702 193.872635,547.570007 193.774033,538.572327 
	C193.747009,536.105713 193.833344,533.715454 196.658264,532.898315 
	C200.302338,531.844177 200.800522,529.324890 200.793854,525.985718 
	C200.715561,486.823944 200.745224,447.661957 200.747009,407.500000 
M682.589050,593.016296 
	C695.871094,585.727051 709.189758,578.503357 722.425171,571.130249 
	C736.052551,563.538818 733.640259,567.642456 733.958862,552.420227 
	C734.022095,549.400269 734.872437,547.476013 737.762756,546.186218 
	C743.230103,543.746399 748.451965,540.741394 753.969971,538.435547 
	C757.574585,536.929260 758.997314,534.855225 758.939514,530.910156 
	C758.698181,514.424744 758.745544,497.935211 758.653320,481.447388 
	C758.641479,479.328949 758.956482,477.089264 757.290100,475.329956 
	C755.600281,475.077606 754.415833,476.113708 753.118103,476.808289 
	C720.536072,494.246735 688.182617,512.130005 655.316711,529.015747 
	C617.705017,548.339722 581.121216,569.561707 543.434570,588.720825 
	C539.439453,590.751709 538.091614,593.234497 538.146606,597.666931 
	C538.408875,618.815735 538.320740,639.968872 538.361633,661.120422 
	C538.364868,662.785522 538.165649,664.495728 538.473511,666.106018 
	C539.066711,669.208130 540.526428,671.007141 544.023560,669.065857 
	C547.661926,667.046265 551.447205,665.290222 555.076050,663.254517 
	C597.182556,639.632996 639.328003,616.082581 682.589050,593.016296 
M305.961609,597.589294 
	C290.205292,589.935364 274.806427,581.511230 258.706390,574.699158 
	C256.284363,578.591980 259.466309,582.433411 256.848785,585.516907 
	C253.933823,588.950745 256.015747,590.751770 259.121552,592.338562 
	C299.297882,612.864929 339.408386,633.520691 379.638336,653.941162 
	C406.802460,667.729553 434.099457,681.254883 460.911011,695.728943 
	C462.859985,696.781128 464.650879,698.589172 467.757355,697.791382 
	C467.757355,694.187256 467.452454,690.524719 467.828644,686.933411 
	C468.396545,681.512268 466.194092,678.531921 461.323090,676.086121 
	C409.693237,650.161499 358.170166,624.024170 305.961609,597.589294 
M276.968201,297.489655 
	C280.376465,299.229248 283.760651,301.018066 287.196777,302.700745 
	C318.883087,318.217377 350.468933,333.930786 381.710449,350.332062 
	C409.117218,364.720093 436.589722,378.982971 464.038116,393.291656 
	C465.490845,394.049042 467.198578,395.459015 468.651764,394.220581 
	C472.524506,390.920135 477.099609,388.658173 481.521240,385.986908 
	C479.877289,383.452087 477.866638,382.564545 475.972595,381.579041 
	C451.168457,368.672729 426.471924,355.552582 401.512390,342.953613 
	C359.327667,321.659698 318.179138,298.266876 274.493530,279.996368 
	C271.792297,278.866608 269.386536,276.757782 265.926636,278.630341 
	C267.945465,273.586395 266.847595,271.041718 263.365509,272.051544 
	C256.861847,273.937683 251.320999,277.664856 245.494217,282.262238 
	C250.376297,283.998077 254.198563,282.093536 258.164276,281.911346 
	C256.696106,286.091125 256.912170,286.968353 260.801849,289.095642 
	C265.910614,291.889648 271.153229,294.438965 276.968201,297.489655 
M265.697144,255.751373 
	C270.114532,259.890381 274.406982,259.308746 279.622009,256.591187 
	C307.814209,241.900116 336.212830,227.605942 364.493073,213.082977 
	C391.882721,199.017349 419.169159,184.750229 446.592377,170.750687 
	C460.050934,163.880112 472.398102,154.802185 487.057373,150.294403 
	C488.102264,149.973114 489.297791,149.414444 489.084930,147.659546 
	C486.610413,145.280746 483.335754,145.008957 480.320496,144.570175 
	C478.377319,146.001892 479.635254,148.411377 478.024841,149.728790 
	C474.117004,150.768341 472.110504,149.209854 471.582672,145.192490 
	C471.129425,141.742416 469.241119,140.609558 465.994812,142.337296 
	C464.820190,142.962433 463.593292,143.488861 462.414246,144.106171 
	C415.237335,168.806686 368.075012,193.535004 320.882904,218.206406 
	C302.302582,227.919952 283.650696,237.496567 265.048981,247.169296 
	C263.040131,248.213867 260.697144,248.980148 259.998291,251.593704 
	C260.982574,253.868958 263.232300,254.367477 265.697144,255.751373 
M574.154114,684.616760 
	C630.492432,652.168213 687.837769,621.541626 745.920105,590.546692 
	C741.146423,586.520996 736.806519,583.058716 739.304138,576.603638 
	C734.776489,576.751709 731.535156,578.485901 728.349365,580.210205 
	C691.024597,600.411316 653.672546,620.562866 616.435852,640.925415 
	C596.869629,651.625122 577.497192,662.680298 558.090454,673.668884 
	C555.680176,675.033630 552.008240,676.074707 551.674438,678.813721 
	C550.992249,684.411194 551.469971,690.149963 551.469971,696.606140 
	C559.428772,692.404724 566.469666,688.687866 574.154114,684.616760 
M734.598572,253.113205 
	C736.031677,252.268448 737.483032,251.452774 738.892761,250.570602 
	C740.239075,249.728165 742.379883,249.446396 742.252625,247.362656 
	C742.138306,245.489655 740.315796,244.816864 738.857361,244.020706 
	C722.350708,235.009903 705.936707,225.824356 689.318909,217.023407 
	C643.575745,192.797287 597.512268,169.169312 552.309448,143.937256 
	C544.634216,139.652969 535.200806,142.497421 528.122437,149.273987 
	C532.139954,153.613525 537.959290,154.700485 542.813721,157.466858 
	C570.433594,173.206360 598.927307,187.303574 626.988586,202.213730 
	C659.467896,219.471359 691.599854,237.380875 724.420532,254.000885 
	C727.963745,255.795135 730.920288,256.253937 734.598572,253.113205 
M590.686768,351.295532 
	C571.422729,360.905975 552.966003,371.933319 533.821594,382.461792 
	C536.877075,386.431702 540.892029,386.758087 543.757568,388.885895 
	C547.353638,391.556152 550.456604,390.899200 554.233459,388.849670 
	C595.925781,366.225464 637.622375,343.605530 679.511475,321.348969 
	C702.578125,309.093201 724.426636,294.607483 748.331604,283.901794 
	C749.081299,283.566071 749.782410,283.066589 749.839905,281.604706 
	C746.238647,278.462219 741.400024,277.000885 736.987244,274.886200 
	C734.493774,273.691254 733.080994,276.832153 730.921692,277.574005 
	C713.158936,283.677032 697.484741,293.939514 681.087402,302.770844 
	C651.192932,318.871490 621.255249,334.891815 590.686768,351.295532 
M450.666077,195.144440 
	C452.601746,194.177979 454.548157,193.232376 456.471191,192.241425 
	C464.607086,188.048904 472.777130,183.919846 480.850525,179.609924 
	C484.993988,177.397980 486.335632,171.166229 483.401398,166.511215 
	C480.599396,162.065994 477.714478,166.070435 475.420441,167.339035 
	C445.415710,183.931213 414.912170,199.574707 384.467255,215.326675 
	C352.689178,231.768448 320.806000,248.007080 288.988983,264.373840 
	C286.452271,265.678741 283.568268,266.613617 281.604767,269.466309 
	C284.977509,271.487305 288.024872,273.180237 290.926971,275.093506 
	C293.337921,276.683044 295.378815,276.386841 297.833496,275.000824 
	C306.233032,270.258057 314.691681,265.609283 323.251709,261.163330 
	C365.481842,239.229828 407.751770,217.373016 450.666077,195.144440 
M664.406433,249.022095 
	C678.188232,256.090088 691.977539,263.143463 705.748352,270.232788 
	C711.871277,273.384888 718.178650,272.120117 724.080017,265.857910 
	C660.491089,233.184433 598.205688,198.639526 534.132690,165.254684 
	C534.132690,168.357025 534.341919,170.342239 534.093811,172.268555 
	C533.327026,178.221695 535.824707,181.828384 541.231323,184.380936 
	C548.901245,188.002014 556.250366,192.298660 563.768005,196.246704 
	C597.084045,213.743408 630.411377,231.218689 664.406433,249.022095 
M769.090881,339.715179 
	C769.090881,378.187256 769.090881,416.659332 769.090881,455.471069 
	C773.728699,454.592651 776.380371,452.403473 779.461365,451.249939 
	C782.782349,450.006500 783.750854,447.785187 783.724915,444.323608 
	C783.419128,403.570343 783.254761,362.816071 783.000854,322.062378 
	C782.989136,320.175354 783.523682,318.006287 781.597351,316.572693 
	C768.608948,320.287598 767.586975,321.766113 768.870850,334.800507 
	C769.001099,336.122498 769.002625,337.457153 769.090881,339.715179 
M514.519836,517.932373 
	C514.638062,531.757141 514.841492,545.581909 514.844177,559.406677 
	C514.845886,568.398010 514.504272,577.388916 514.434082,586.380981 
	C514.417969,588.447266 514.113403,591.117737 517.129150,591.478333 
	C521.165894,591.960938 527.892883,585.370972 527.921631,581.116028 
	C528.145691,547.960815 528.459656,514.805664 528.509033,481.650116 
	C528.523499,471.903442 527.776917,462.155609 527.375549,452.320740 
	C516.828613,455.095154 514.736145,457.601746 514.437866,467.557892 
	C514.353088,470.388641 514.310425,473.226990 514.413086,476.055878 
	C514.908630,489.702789 515.683777,503.346436 514.519836,517.932373 
M450.184265,534.463318 
	C459.080536,537.309692 464.293457,533.561340 464.721832,524.145874 
	C464.974915,518.583740 464.200592,513.167053 462.516113,507.917389 
	C459.628479,498.918213 454.762207,491.258484 446.079193,486.856567 
	C437.915741,482.718018 432.507477,485.273865 430.328918,494.116455 
	C427.459290,505.764099 432.602844,527.348389 450.184265,534.463318 
M226.525558,480.735474 
	C226.514542,479.074799 226.421204,477.409943 226.506195,475.754181 
	C226.967987,466.758789 226.983154,466.759583 218.526703,462.860718 
	C212.672806,460.161774 211.378220,460.859131 211.413864,467.209656 
	C211.512802,484.840240 212.019318,502.473480 211.793732,520.098389 
	C211.707733,526.817200 212.741684,532.130188 219.471756,534.994263 
	C221.226028,535.740784 222.571701,538.350769 224.624405,537.254761 
	C226.940170,536.018311 226.528336,533.276367 226.408081,530.950928 
	C225.556946,514.492371 225.624146,498.035797 226.525558,480.735474 
M777.592957,463.134155 
	C774.526978,465.713684 769.197021,465.678833 769.242737,471.767426 
	C769.384094,490.585785 769.068420,509.408264 770.273621,528.206482 
	C770.356995,529.506348 770.156860,530.933228 771.928589,531.876099 
	C774.122803,530.560669 776.808655,530.420776 779.450134,530.556580 
	C782.666504,530.721863 783.790833,529.550537 783.768311,526.250854 
	C783.630920,506.093414 783.717102,485.934540 783.635986,465.776520 
	C783.617004,461.060150 782.865845,460.734711 777.592957,463.134155 
M527.776550,607.587769 
	C527.440369,604.375671 528.504944,600.990845 526.850952,597.930969 
	C519.572815,599.118530 515.448853,603.430908 514.900574,610.112183 
	C513.795837,623.574951 514.566101,637.058899 514.444153,650.532043 
	C514.382385,657.359070 520.011230,662.811340 527.781250,663.431519 
	C527.781250,645.118713 527.781250,626.839905 527.776550,607.587769 
M512.502563,410.146912 
	C519.665649,406.142975 526.828796,402.139008 535.020752,397.559967 
	C525.844299,393.043091 517.988586,388.725555 510.913300,383.166748 
	C509.848206,382.329956 508.719757,382.496613 507.722900,383.363983 
	C501.860596,388.464661 494.613190,391.229950 488.017395,395.094360 
	C484.528442,397.138489 484.488312,398.699799 488.134857,400.672424 
	C493.844879,403.761230 499.725494,406.533508 505.512421,409.481995 
	C507.520050,410.504883 509.571075,410.940430 512.502563,410.146912 
M492.996918,610.407959 
	C492.440033,627.356995 491.883179,644.306030 491.312073,661.688049 
	C503.278534,658.106445 504.648773,656.418579 504.682831,646.119568 
	C504.723053,633.954285 504.697083,621.788696 504.683594,609.623230 
	C504.679565,605.989197 499.125702,600.215820 495.741364,600.968567 
	C491.539368,601.903198 493.791504,605.894165 493.062836,608.496094 
	C492.975616,608.807556 493.032990,609.159485 492.996918,610.407959 
M490.105988,135.477631 
	C491.448395,136.143829 492.913879,136.639053 494.113861,137.503036 
	C504.545563,145.013809 514.796570,145.914322 525.177368,137.264755 
	C527.603455,135.243271 531.234192,134.788467 533.499817,131.763107 
	C525.629456,127.193771 518.152466,122.871391 510.697449,118.511475 
	C508.849335,117.430664 507.285065,117.912399 505.582489,118.936188 
	C500.301483,122.111809 494.915833,125.114037 489.646545,128.308472 
	C485.578979,130.774384 485.604309,132.048386 490.105988,135.477631 
M218.040695,555.517029 
	C214.327774,553.473022 210.614868,551.428955 206.790482,549.323608 
	C206.174149,550.406677 205.585052,550.964783 205.573837,551.534180 
	C205.436798,558.508240 205.376648,565.483948 205.318619,572.459351 
	C205.309937,573.502625 205.647629,574.500061 206.607132,575.004883 
	C214.039902,578.915283 221.493774,582.785400 228.952423,586.673889 
	C230.950119,582.359863 230.130981,580.122742 230.449783,572.539978 
	C230.838379,563.296448 226.922928,558.387024 218.040695,555.517029 
M776.698303,581.149719 
	C780.290100,579.416809 783.886169,577.692444 787.471802,575.946899 
	C789.003540,575.201172 790.539917,574.307556 790.554382,572.377258 
	C790.614990,564.313232 790.579895,556.248535 790.579895,547.113281 
	C782.855652,552.027283 776.029846,556.347046 769.236267,560.716980 
	C768.247314,561.353088 767.610779,562.333374 767.354675,563.550964 
	C765.813049,570.878906 766.236267,578.229065 766.411499,586.212952 
	C770.134460,584.407593 773.098267,582.970337 776.698303,581.149719 
M514.221802,716.252930 
	C514.537476,718.290649 513.523926,720.590637 515.581421,722.593018 
	C522.744995,718.844299 529.938477,715.103882 537.104126,711.310974 
	C538.649353,710.493042 539.648743,709.245789 539.639893,707.332153 
	C539.609497,700.718994 539.628235,694.105652 539.628235,687.157715 
	C535.345642,687.833069 532.178162,690.085205 528.816956,691.729431 
	C514.101562,698.928467 514.130066,698.986755 514.221802,716.252930 
M533.308472,435.813660 
	C538.253784,434.096252 540.028442,431.131958 539.096191,425.567474 
	C538.193848,420.181763 538.900574,414.526428 538.900574,407.827576 
	C530.607727,412.144287 523.577881,415.757721 516.599487,419.467896 
	C514.818481,420.414795 514.303955,422.183807 514.310974,424.138489 
	C514.329468,429.283661 514.341125,434.429199 514.302307,439.574188 
	C514.274109,443.311096 515.742737,444.458130 519.228333,442.703308 
	C523.674011,440.465088 528.168762,438.324493 533.308472,435.813660 
M484.009033,712.410278 
	C490.497803,715.143555 496.476624,719.086426 503.804138,721.470520 
	C505.116089,713.788147 505.011688,706.905273 504.024719,700.015137 
	C503.919342,699.279358 503.351135,698.289917 502.726349,697.997314 
	C495.127991,694.438782 488.328644,689.170349 479.296722,686.842346 
	C479.296722,693.372009 479.486481,699.480164 479.221924,705.568604 
	C479.075409,708.940186 480.320831,710.932983 484.009033,712.410278 
M485.304413,411.351257 
	C481.661652,409.623993 480.274200,411.353394 480.388123,414.784485 
	C480.596588,421.063873 477.820770,428.804504 481.433289,433.247162 
	C485.515839,438.267822 492.965942,440.764954 499.445129,443.400391 
	C500.894714,443.990021 502.568207,444.743439 504.689087,443.084717 
	C504.689087,437.349213 504.580597,431.225098 504.736633,425.107758 
	C504.810272,422.221832 503.740204,420.443268 501.162384,419.215485 
	C496.054871,416.782867 491.026764,414.183411 485.304413,411.351257 
M785.457581,263.579224 
	C786.720154,260.337677 783.603333,260.483246 782.197266,259.842621 
	C777.365601,257.641357 772.093018,256.266968 767.836609,253.001541 
	C764.747375,250.631592 762.117004,250.425705 758.865906,252.543961 
	C756.234619,254.258408 753.204407,255.347244 750.466003,256.914307 
	C747.262146,258.747742 743.335327,259.457520 740.479431,263.099731 
	C747.955688,267.037903 755.074158,270.843903 762.260315,274.517395 
	C763.452087,275.126617 764.875977,274.654236 766.127441,274.095398 
	C772.657898,271.179382 779.039001,267.984161 785.457581,263.579224 
M222.663803,255.242279 
	C218.309586,257.459076 213.409561,258.737946 209.331772,262.876404 
	C217.595383,267.335083 225.715683,270.983368 233.916260,274.464203 
	C234.331482,274.640472 234.955078,274.604187 235.383911,274.428406 
	C242.279449,271.601837 248.459015,267.625214 254.969940,262.780670 
	C250.630814,259.189148 245.569260,258.303162 241.930878,255.363937 
	C235.633835,250.276932 229.662399,249.930634 222.663803,255.242279 
M229.417526,303.383392 
	C228.529129,298.776031 228.952133,294.114960 228.873566,289.476196 
	C228.838577,287.410889 228.703857,285.423767 226.659531,284.289703 
	C220.201294,280.707031 213.721283,277.163635 206.311600,273.089203 
	C206.311600,281.883759 206.313309,289.638824 206.310242,297.393860 
	C206.309570,299.056122 206.992218,300.179382 208.595261,300.853149 
	C213.942505,303.100708 219.239746,305.467346 224.589630,307.708405 
	C228.036484,309.152283 229.607803,307.785706 229.417526,303.383392 
M768.555298,285.357880 
	C766.017822,293.244995 767.862488,301.178955 767.177612,310.106415 
	C775.026489,306.266327 781.580078,303.069458 788.122375,299.849579 
	C789.199402,299.319489 790.317993,298.492249 790.364746,297.323547 
	C790.659912,289.951324 791.314331,282.546478 789.806458,274.660248 
	C782.137939,277.566559 775.775330,281.494110 768.555298,285.357880 
M493.882812,675.362854 
	C492.529816,676.666138 490.126953,676.897156 489.710693,679.726501 
	C493.479767,681.600342 497.255249,683.624451 501.154785,685.371643 
	C504.551819,686.893616 507.882629,690.075317 511.807465,688.292664 
	C517.823059,685.560364 523.848022,682.647156 529.530945,678.144958 
	C524.398438,675.428284 520.051880,673.052124 515.636841,670.810791 
	C510.681274,668.294922 505.699280,667.608582 500.763428,670.976013 
	C498.711334,672.375916 496.586792,673.669678 493.882812,675.362854 
M141.647751,571.767090 
	C150.208450,571.941650 153.819778,568.583679 153.758423,560.506165 
	C153.705521,553.542358 151.011276,550.894531 142.928757,549.863220 
	C136.837128,549.085938 130.716431,552.990723 130.213440,557.975159 
	C129.423080,565.806946 133.589386,571.236877 141.647751,571.767090 
M144.922516,259.123627 
	C143.358780,260.471375 141.631378,261.818573 139.604492,260.359222 
	C137.644882,258.948273 138.268036,256.720337 138.769623,254.822937 
	C139.143311,253.409271 139.960434,252.102982 140.647537,250.784012 
	C142.163406,247.874191 142.036148,245.185364 139.990494,242.636902 
	C133.016373,245.208313 130.348724,249.812943 131.354843,257.138092 
	C132.044937,262.162231 135.403046,265.148865 140.908615,265.634827 
	C146.240280,266.105469 150.474472,263.974426 151.604431,260.251648 
	C153.526978,253.917572 150.308136,245.320450 144.671494,242.097610 
	C143.715576,244.979721 144.249084,247.648712 145.326782,250.314758 
	C146.414215,253.004913 146.998550,255.733719 144.922516,259.123627 
M853.298767,244.525085 
	C852.169495,245.219467 850.958008,245.809891 849.925781,246.626907 
	C846.185608,249.587280 844.743408,257.859528 847.226379,261.716217 
	C850.011414,266.042114 856.896606,267.457581 861.941528,264.741425 
	C866.864746,262.090820 868.122192,257.533630 865.805664,251.451996 
	C863.710632,245.951706 859.551147,244.062256 853.298767,244.525085 
M863.706726,574.343628 
	C864.692749,573.455505 865.852051,572.697510 866.633972,571.656128 
	C869.555115,567.765625 869.480530,563.535156 867.286926,559.430603 
	C864.205566,553.664795 858.878967,554.547241 853.648743,555.135315 
	C849.394104,555.613831 847.825745,558.459229 846.898010,562.086670 
	C845.696960,566.782471 847.247620,570.605957 850.568298,573.852966 
	C854.466675,577.664734 858.736328,576.702026 863.706726,574.343628 
M750.089600,585.274292 
	C751.470886,585.733765 752.807983,586.639221 754.728455,585.480896 
	C755.607666,580.117859 754.604431,574.490051 754.638916,568.890625 
	C754.675659,562.917969 752.828308,561.388550 746.019104,561.290649 
	C746.411499,566.760315 746.064270,572.189087 745.095215,577.579163 
	C744.442017,581.212280 745.865295,583.727295 750.089600,585.274292 
M778.179749,543.842957 
	C779.615112,542.790649 781.329346,542.013550 782.071594,539.713928 
	C778.630554,538.177734 774.838928,536.744080 771.914551,539.559509 
	C767.824524,543.497253 762.783875,545.481262 758.015686,548.082336 
	C755.722595,549.333191 753.520081,550.656433 751.845398,553.106812 
	C755.363403,554.809143 758.346985,553.938049 761.073303,552.324829 
	C766.369019,549.191162 771.978638,546.732300 778.179749,543.842957 
M773.837158,242.840729 
	C777.823975,244.045120 781.852478,249.301620 785.335815,246.603165 
	C788.841980,243.886932 785.790039,238.214203 785.623169,233.838867 
	C785.614868,233.621521 785.171143,233.420776 784.463135,232.808350 
	C779.846741,235.024170 775.017334,237.342224 770.209778,239.649796 
	C770.762207,241.464752 772.196472,241.767548 773.837158,242.840729 
M245.547562,292.238190 
	C244.229095,290.854401 243.170227,289.024719 240.368927,289.425690 
	C239.928253,295.601318 239.623398,301.730621 240.345978,307.862793 
	C246.647751,307.692902 247.802872,306.618134 247.845276,301.461243 
	C247.870071,298.446045 247.361725,295.555573 245.547562,292.238190 
M752.709351,307.674835 
	C755.612427,305.053436 756.083679,298.187012 753.642395,292.734467 
	C749.632751,293.928101 746.121338,295.947571 745.650208,300.426666 
	C745.210388,304.608429 748.505981,306.388885 752.709351,307.674835 
M522.644531,164.610870 
	C522.276733,163.179993 522.122314,161.646210 521.493164,160.341385 
	C520.444092,158.165924 518.698303,156.172440 516.159668,156.560837 
	C513.093689,157.029922 514.418701,159.979446 514.055664,161.909470 
	C513.874390,162.872894 513.896057,163.910629 514.024353,164.888702 
	C514.303406,167.015274 513.256836,170.118790 516.734802,170.336212 
	C519.945496,170.536911 522.772827,169.533325 522.644531,164.610870 
M501.269226,167.741104 
	C501.922821,167.770416 502.814514,168.089005 503.189728,167.780136 
	C505.046906,166.251343 505.594635,157.460846 503.725494,156.082077 
	C501.837982,154.689789 499.341583,152.884476 497.312103,155.846207 
	C494.678741,159.689133 496.338867,165.126770 501.269226,167.741104 
M244.534988,571.756775 
	C244.586121,569.520752 245.360046,567.214294 244.063217,564.905396 
	C242.013077,565.222717 241.467407,566.482788 241.358887,568.075256 
	C241.019684,573.052002 240.652817,578.027649 240.402695,583.009094 
	C240.322296,584.610168 240.062912,586.695068 242.575851,586.647461 
	C244.507584,586.610840 246.129242,585.630737 246.641739,583.574585 
	C247.100250,581.734924 246.663498,579.958130 245.959549,578.221558 
	C245.218750,576.394043 244.035446,574.675598 244.534988,571.756775 
M223.711914,544.924988 
	C222.961182,544.865173 222.041687,544.418213 221.808960,546.159729 
	C226.941483,548.865540 232.165756,551.719116 237.490982,554.369751 
	C239.203323,555.222046 241.448212,555.255737 242.285248,553.238220 
	C243.124985,551.214111 241.008148,550.377075 239.564972,549.725342 
	C234.709061,547.532471 229.759003,545.575256 223.711914,544.924988 
z"/>
<path fill="#000000" opacity="1.000000" stroke="none" 
	d="
M303.337708,690.370239 
	C303.458160,685.018372 305.757111,681.534546 309.340088,677.735229 
	C315.484375,671.219910 323.353760,667.059509 329.548462,660.837097 
	C331.471497,658.905457 333.030548,658.769165 335.211945,659.890076 
	C339.206482,661.942505 343.294189,663.817444 347.250275,665.939392 
	C349.225708,666.999023 351.954529,668.117737 350.291626,671.139587 
	C348.878571,673.707520 346.378296,674.860779 343.483032,673.687622 
	C341.029083,672.693359 338.688873,671.380920 336.389343,670.051697 
	C332.955475,668.066833 330.150208,668.604492 327.378448,672.082703 
	C332.569000,676.570923 340.400848,678.547485 340.527161,688.461426 
	C343.516724,683.463318 346.000244,680.216797 349.017212,677.393433 
	C354.435638,672.322754 360.942993,670.845215 367.969482,672.158386 
	C373.253357,673.145813 376.923279,676.556946 378.197296,681.921143 
	C378.903351,684.894165 378.186646,687.713806 374.955750,688.921143 
	C371.472107,690.222900 370.334991,687.650146 369.155945,685.102173 
	C365.472717,677.142761 362.433197,676.526306 355.336029,682.181030 
	C367.589844,690.547119 370.278961,695.203491 366.902924,702.210022 
	C363.866852,708.511108 352.618195,714.565857 346.965424,712.941650 
	C337.531219,710.230774 333.801605,703.914795 334.918396,692.540344 
	C319.421082,701.871277 314.808777,701.603577 303.337708,690.370239 
M320.802094,691.833984 
	C322.271912,691.652283 323.839233,691.732361 325.189362,691.229370 
	C327.380768,690.412964 329.616638,689.226196 329.775726,686.518005 
	C329.930847,683.878113 327.945129,682.391663 326.000305,681.047913 
	C323.736511,679.483887 321.158447,680.023132 318.731628,680.268677 
	C316.589630,680.485291 313.556000,679.060120 312.533875,681.911682 
	C311.532684,684.704895 313.691772,686.914734 315.448547,688.920471 
	C316.664551,690.308838 318.118744,691.421692 320.802094,691.833984 
M350.434174,690.558899 
	C346.374817,690.938416 345.008209,693.966797 344.233521,697.255249 
	C343.641602,699.768005 344.881866,701.838745 347.090088,703.090027 
	C349.422638,704.411804 351.911713,704.376465 354.162872,702.892395 
	C356.638336,701.260498 358.503784,698.804260 358.204376,695.893188 
	C357.807098,692.030579 354.146057,691.590210 350.434174,690.558899 
z"/>
<path fill="#000000" opacity="1.000000" stroke="none" 
	d="
M330.775391,150.020645 
	C331.479187,152.033905 332.111206,151.690384 333.248352,150.566101 
	C338.060333,145.808578 343.440186,142.962006 350.153046,146.482941 
	C351.250549,145.080704 350.100708,144.376114 349.717285,143.601364 
	C346.759125,137.624069 346.829071,133.540176 350.047119,130.196960 
	C354.062256,126.025642 361.738831,124.429085 366.686066,126.765404 
	C367.863129,127.321289 369.403168,127.734467 369.315430,129.382126 
	C369.227997,131.023956 367.981354,131.985565 366.574158,132.663422 
	C364.575012,133.626419 362.668610,132.661285 360.721039,132.375046 
	C355.651886,131.629944 354.218811,133.409348 355.774048,138.918854 
	C361.188202,135.033066 366.908386,135.062851 372.666016,137.790390 
	C376.141663,139.436890 378.938934,141.945297 378.798767,146.125931 
	C378.669403,149.985062 376.198547,152.316269 372.755493,153.967346 
	C368.614655,155.953064 364.311432,155.279724 359.587799,155.219162 
	C359.259674,163.433899 354.473236,167.735107 346.905334,169.634750 
	C342.940674,170.629929 339.687042,169.397781 335.951721,168.035034 
	C326.147583,164.458160 324.641479,154.873383 319.873688,147.660690 
	C318.617828,145.760818 319.256195,144.346680 321.444672,143.370560 
	C326.306732,141.201935 331.090118,138.855652 335.890381,136.550262 
	C338.509857,135.292191 340.655701,135.373184 342.151520,138.287277 
	C343.932007,141.755951 341.185150,142.392883 339.100098,143.778290 
	C336.236420,145.681046 331.707855,145.298279 330.775391,150.020645 
M344.236542,152.840393 
	C339.184998,154.013077 337.232635,156.465607 339.087433,159.485672 
	C340.714874,162.135605 343.357391,162.925034 346.331055,162.790466 
	C348.357574,162.698761 349.943726,161.732071 350.305328,159.737823 
	C350.829620,156.846405 348.654694,155.316910 346.677887,153.826553 
	C346.168701,153.442642 345.493958,153.278320 344.236542,152.840393 
M364.261047,149.123062 
	C366.314972,149.431442 368.379333,149.324005 369.513519,147.377304 
	C370.292847,146.039627 369.239716,144.829468 368.171051,143.972656 
	C366.251526,142.433640 363.821320,141.189285 361.888123,143.129471 
	C359.510040,145.516205 362.208527,147.157944 364.261047,149.123062 
z"/>
<path fill="#000000" opacity="1.000000" stroke="none" 
	d="
M444.098877,112.196709 
	C425.507111,121.593933 407.258789,130.845383 388.983917,140.044128 
	C386.837738,141.124420 384.592072,142.831635 382.757782,139.250046 
	C381.274384,136.353546 381.216888,134.585724 384.585480,132.979752 
	C396.897339,127.110100 409.137482,121.084229 421.312195,114.934250 
	C433.783356,108.634529 446.151062,102.129677 458.548035,95.683891 
	C459.688049,95.091148 461.056305,94.651863 461.372528,93.204491 
	C461.372528,92.951088 461.407898,92.776855 461.367249,92.622650 
	C460.709351,90.125854 456.215088,89.102051 457.920624,86.115982 
	C459.522186,83.311958 463.108215,84.814133 465.800232,84.747734 
	C470.952606,84.620674 476.116760,84.800217 481.271240,84.985611 
	C484.977631,85.118912 486.390350,86.641548 484.631897,90.458786 
	C482.688232,94.678040 481.314178,99.158676 479.392090,103.389175 
	C477.301849,107.989708 474.970123,108.207588 472.573334,103.776817 
	C470.518616,99.978363 468.374695,99.928719 464.956207,101.747299 
	C458.202576,105.340157 451.284454,108.623711 444.098877,112.196709 
z"/>
<path fill="#000000" opacity="1.000000" stroke="none" 
	d="
M498.397400,807.922729 
	C496.662903,806.313293 494.370239,805.114014 493.989075,803.471313 
	C491.801300,794.043091 483.343506,791.877625 476.450775,788.220642 
	C472.470306,786.108826 469.348694,781.710266 463.674774,782.867004 
	C461.836761,783.241699 459.938110,781.146729 459.145447,778.557434 
	C464.668915,776.657471 471.306610,778.296204 474.740784,772.142151 
	C479.395599,775.021851 474.683868,777.801697 475.227936,781.005493 
	C480.127869,782.395630 485.350006,783.836853 489.952393,786.143921 
	C492.009491,785.655457 492.371582,784.002747 493.206940,782.837708 
	C501.399414,771.411438 516.702393,771.759277 523.880676,783.737732 
	C525.495667,786.432678 526.949585,786.699951 529.450562,785.346252 
	C531.197998,784.400330 533.070190,783.583374 534.983337,783.066589 
	C538.757080,782.047180 542.134521,781.027466 540.632996,775.827820 
	C540.188843,774.289795 541.582153,772.842407 542.955444,773.668823 
	C546.686279,775.913696 551.007202,776.692566 554.719177,778.853882 
	C555.550903,779.338074 556.005798,780.366760 555.815369,781.935608 
	C547.044067,784.775757 539.000427,789.809814 530.169800,793.094543 
	C527.838745,793.961609 526.444458,795.377075 525.515259,797.799194 
	C521.071167,809.383484 510.195618,813.494995 498.397400,807.922729 
M506.102783,781.453247 
	C505.018829,781.871582 503.860382,782.159668 502.863403,782.730103 
	C497.641815,785.717163 496.038086,791.737244 498.875397,797.439087 
	C501.540619,802.795105 506.661438,804.775940 512.259094,802.616211 
	C517.003784,800.785522 520.324341,795.137573 519.554443,790.207275 
	C518.691406,784.681091 514.245911,781.581543 506.102783,781.453247 
z"/>
<path fill="#000000" opacity="1.000000" stroke="none" 
	d="
M690.108276,671.030762 
	C687.403442,673.969055 685.917603,677.447510 682.706177,679.539307 
	C680.501099,680.975464 678.666931,681.457520 676.446594,679.514771 
	C671.282410,674.996155 666.589539,670.070312 662.540649,664.527649 
	C661.077637,662.524902 661.137085,660.976868 663.483154,659.633484 
	C670.564087,655.578796 677.616150,651.472107 684.625305,647.294861 
	C686.760498,646.022339 688.459351,646.331482 689.815430,648.254761 
	C691.257263,650.299683 691.892517,652.414978 689.777466,654.547180 
	C687.146057,657.199890 683.867615,658.833130 680.670837,660.621033 
	C678.974915,661.569519 676.861938,661.935120 675.753662,663.973389 
	C676.587402,666.257507 678.425537,667.618469 680.349915,669.023254 
	C680.817383,668.749268 681.361450,668.608398 681.610596,668.257874 
	C685.669067,662.549561 690.741211,659.892090 697.960144,661.841003 
	C706.077148,664.032227 712.273071,668.061218 714.489807,676.667175 
	C714.736267,677.624207 714.988281,678.645447 714.910095,679.610291 
	C714.308899,687.026062 698.752441,696.353943 691.964111,693.328247 
	C688.511963,691.789551 685.048401,690.179688 682.335327,687.428955 
	C685.933411,682.727295 688.721924,681.864563 692.962097,684.270386 
	C697.694519,686.955566 700.100220,683.319641 702.519043,680.648560 
	C705.052307,677.851074 703.842712,674.935974 701.117249,672.907104 
	C697.947571,670.547668 694.696655,667.693054 690.108276,671.030762 
z"/>
<path fill="#000000" opacity="1.000000" stroke="none" 
	d="
M650.340393,702.445312 
	C652.643372,697.424927 655.627075,693.141113 657.000732,688.093750 
	C657.856506,684.949341 658.608276,681.844604 655.551880,679.411377 
	C653.066223,677.432556 650.389771,677.102539 647.751404,679.075134 
	C644.881592,681.220886 642.183838,683.464905 643.780518,687.762024 
	C644.903259,690.783813 643.731323,692.965881 640.799011,694.165405 
	C637.805786,695.389832 635.577209,694.950867 633.708740,691.829285 
	C630.813232,686.991699 630.705444,682.630554 633.966248,677.915344 
	C641.196777,667.459839 656.354736,665.735901 665.243896,674.894104 
	C669.321777,679.095398 667.847351,684.627991 666.596802,689.574097 
	C665.468567,694.036499 663.569641,698.303955 661.732605,703.433594 
	C667.161438,700.486816 672.131042,698.245972 676.591797,695.248047 
	C681.721924,691.800110 683.859619,694.733154 686.276917,698.914734 
	C687.257935,700.611633 686.598511,701.660583 684.890137,702.411621 
	C676.472534,706.112000 668.755493,711.013428 661.286926,716.328979 
	C659.888855,717.323975 658.352356,717.596191 657.279907,716.164001 
	C654.230042,712.091187 650.535522,708.317871 650.340393,702.445312 
z"/>
<path fill="#000000" opacity="1.000000" stroke="none" 
	d="
M549.170288,102.922256 
	C543.831604,101.212852 539.580261,96.616470 533.389832,99.038116 
	C530.944763,96.284515 528.273804,93.544456 525.930664,90.547989 
	C524.234192,88.378502 524.056396,85.741394 527.448669,85.326073 
	C533.632324,84.569016 539.889709,84.413971 545.993103,84.015816 
	C547.235107,86.873421 543.971863,87.504219 543.961914,89.906616 
	C546.450745,92.243561 549.656372,93.971931 552.872253,95.619965 
	C575.663635,107.299858 598.099365,119.635223 620.365723,132.278000 
	C622.300354,133.376511 625.605164,133.802490 624.945923,137.271133 
	C624.233154,141.021332 621.567993,141.979935 617.998291,140.030899 
	C595.230957,127.600311 572.817078,114.514290 549.170288,102.922256 
z"/>
<path fill="#000000" opacity="1.000000" stroke="none" 
	d="
M276.918396,671.862793 
	C283.020203,667.185913 289.983948,667.396545 296.748260,666.824646 
	C299.873047,666.560547 303.099457,667.111938 306.029572,665.446533 
	C310.674438,662.806335 310.812653,658.465820 306.306122,655.781067 
	C301.366089,652.837952 297.047333,653.925720 294.037903,658.946777 
	C292.279083,661.881287 290.098145,660.735474 288.052979,659.554688 
	C285.344757,657.991089 285.161835,655.688293 286.681488,653.152283 
	C289.429047,648.567139 300.789581,644.578918 305.918152,646.394775 
	C306.856323,646.726990 307.795380,647.106812 308.655334,647.601440 
	C313.533600,650.407471 319.225159,652.678162 319.161926,659.622986 
	C319.114899,664.790588 312.490509,671.462158 305.914734,673.181458 
	C303.202148,673.890625 300.337402,674.009949 297.546936,674.431213 
	C294.941284,674.824585 292.342377,675.262634 288.899719,675.816101 
	C292.950958,678.069092 296.295197,680.033691 299.735718,681.812073 
	C303.008087,683.503418 302.491241,685.885315 301.314453,688.562866 
	C299.936798,691.697449 297.936859,690.969849 295.633759,689.711060 
	C289.937134,686.597595 284.203705,683.549988 278.451294,680.540405 
	C273.012604,677.694946 272.916626,677.373779 276.918396,671.862793 
z"/>
<path fill="#000000" opacity="1.000000" stroke="none" 
	d="
M671.714661,144.692841 
	C681.206116,148.109924 683.923462,153.633606 680.513000,161.977631 
	C677.472107,169.417435 669.273621,172.267410 661.250610,168.673737 
	C653.044373,164.997971 650.296936,159.022964 653.769653,152.043564 
	C657.754150,152.571060 661.554810,152.852448 661.615906,158.641617 
	C661.644104,161.311813 664.232971,162.751877 667.023254,162.831879 
	C670.452332,162.930191 671.431946,160.263184 672.277649,157.730499 
	C673.236023,154.860458 671.421875,153.333496 669.058899,152.452301 
	C666.109070,151.352249 663.056152,150.530579 660.093323,149.462479 
	C657.580383,148.556595 657.182434,146.856049 658.876404,144.844254 
	C662.194763,140.903214 665.594727,137.030807 668.967407,133.135605 
	C669.829651,132.139816 670.889465,131.821365 672.089233,132.446625 
	C678.223633,135.643600 684.347046,138.861542 690.444824,142.056686 
	C687.455017,148.248245 686.703491,148.483749 681.312866,145.642319 
	C678.817688,144.327118 676.258057,143.130768 673.700195,141.939468 
	C672.288879,141.282181 671.035278,141.659500 670.285156,143.010803 
	C669.706482,144.053085 670.497620,144.450150 671.714661,144.692841 
z"/>
<path fill="#000000" opacity="1.000000" stroke="none" 
	d="
M659.424805,136.195099 
	C657.134094,142.015686 653.158691,144.789886 647.277649,145.578079 
	C644.270020,145.981140 640.904114,145.585693 637.776001,148.000519 
	C640.165710,150.783539 643.414062,152.037277 646.395508,153.556183 
	C649.112183,154.940231 650.094055,156.758102 648.821716,159.580688 
	C647.386536,162.764832 645.147461,161.094223 643.400574,160.183762 
	C635.960022,156.305817 628.380310,152.616577 621.416565,146.883118 
	C626.897339,142.241776 633.067139,141.162979 639.120789,139.775528 
	C641.699036,139.184631 644.310303,138.639145 646.789795,137.748108 
	C648.668335,137.073029 650.575256,135.865128 650.488953,133.535721 
	C650.403259,131.223740 648.467773,130.202225 646.522400,129.584579 
	C644.318176,128.884750 642.645081,129.773636 641.510254,131.755463 
	C641.108582,132.456863 640.650696,133.125992 640.103455,133.991867 
	C636.815979,133.410995 634.082275,131.750824 633.544678,128.694839 
	C632.972595,125.442360 636.085876,123.861984 638.579102,122.681931 
	C644.494812,119.881935 650.047852,121.724525 655.038574,125.053268 
	C658.699097,127.494835 660.514771,131.198837 659.424805,136.195099 
z"/>
<path fill="#000000" opacity="1.000000" stroke="none" 
	d="
M319.182251,160.337463 
	C319.692383,165.224762 316.808380,169.359375 317.630646,174.158447 
	C322.047302,174.535233 325.101044,172.286682 328.139832,170.093277 
	C330.451202,168.424911 332.647949,167.864639 334.653015,170.429474 
	C336.186340,172.390900 336.652222,174.172394 333.870117,175.668182 
	C329.628876,177.948456 325.488525,180.417389 321.319336,182.830383 
	C318.766907,184.307648 316.182098,185.514343 313.533539,183.150970 
	C310.861542,180.766632 308.469788,178.118866 309.588470,174.132019 
	C310.633667,170.407135 310.993866,166.618225 310.979950,162.797195 
	C310.972137,160.655457 310.931580,158.132492 307.691528,158.366516 
	C304.686737,158.583542 303.723480,160.528778 304.270203,163.253784 
	C304.766174,165.725769 305.883972,168.455536 302.157013,169.184509 
	C298.594757,169.881271 296.566467,167.796066 295.434570,164.639252 
	C294.200165,161.196671 294.820435,157.854340 297.126740,155.285950 
	C300.835144,151.156128 305.761292,149.799026 311.208374,150.858459 
	C316.114288,151.812653 318.435547,155.196640 319.182251,160.337463 
z"/>
<path fill="#000000" opacity="1.000000" stroke="none" 
	d="
M784.775024,174.729797 
	C783.859558,170.564880 783.779297,166.761765 784.207153,162.952118 
	C784.409668,161.148697 785.209717,159.843964 787.338745,159.806000 
	C789.570618,159.766220 790.913635,160.889191 791.028992,162.971985 
	C791.211853,166.273438 791.340332,169.624054 790.980042,172.897537 
	C790.545898,176.841614 788.788696,177.365219 784.775024,174.729797 
z"/>
<path fill="#000000" opacity="1.000000" stroke="none" 
	d="
M208.777618,180.509705 
	C204.922546,180.935074 203.635056,179.073807 203.753677,175.838684 
	C203.850861,173.187988 203.799683,170.525330 204.041718,167.888870 
	C204.191284,166.259933 205.209045,165.101883 207.036621,165.210007 
	C208.867462,165.318314 210.422989,166.078583 210.302887,168.168884 
	C210.069458,172.231384 211.284103,176.446167 208.777618,180.509705 
z"/>
<path fill="#000000" opacity="1.000000" stroke="none" 
	d="
M301.052704,185.062836 
	C299.802521,184.586807 298.751923,184.288651 298.105133,183.607193 
	C296.548981,181.967575 294.370758,180.373749 295.361694,177.701996 
	C295.992950,176.000031 297.250031,174.545929 299.506927,174.828339 
	C302.352814,175.184448 304.776489,176.504669 305.758118,179.140350 
	C307.155029,182.891022 304.060303,183.936188 301.052704,185.062836 
z"/>
<path fill="#000000" opacity="1.000000" stroke="none" 
	d="
M296.260742,174.321564 
	C293.684753,176.420853 293.453339,180.489594 289.387665,180.891571 
	C287.944244,177.373688 289.012878,174.366531 290.772400,171.505951 
	C291.925995,169.630463 293.778381,170.595352 295.309723,170.739929 
	C297.799530,170.975006 297.974182,172.276337 296.260742,174.321564 
z"/>
<path fill="#000000" opacity="1.000000" stroke="none" 
	d="
M509.158264,55.256081 
	C511.827118,58.332088 511.686188,61.468517 509.402435,65.487549 
	C506.453247,61.737072 506.918091,58.572018 509.158264,55.256081 
z"/>
<path fill="#000000" opacity="1.000000" stroke="none" 
	d="
M512.409241,272.488159 
	C511.855621,276.003479 512.789978,277.740967 516.352844,277.012268 
	C517.159790,276.847229 518.004517,276.856171 518.833252,276.810150 
	C528.983521,276.246399 531.227051,279.502930 528.013428,289.326050 
	C525.376892,297.384918 518.930847,301.274933 512.114319,304.865082 
	C510.637634,305.642792 508.766510,305.641357 507.254272,304.893066 
	C498.605591,300.613739 492.597992,294.200623 490.994873,284.311584 
	C490.120819,278.919952 491.706146,276.983521 497.264343,276.833710 
	C497.927155,276.815826 498.595825,276.813782 499.254608,276.877960 
	C506.744476,277.607910 506.754364,277.614044 508.392761,270.332703 
	C508.677307,269.068024 509.282135,267.965576 510.645081,268.185974 
	C512.971069,268.562164 512.581055,270.463867 512.409241,272.488159 
M499.502197,285.377045 
	C498.814209,292.731323 500.560333,294.713348 507.867157,294.779358 
	C509.859039,294.797363 511.880096,294.870483 513.838135,294.581665 
	C516.878357,294.133179 519.730469,293.041473 521.091919,289.985077 
	C522.463013,286.907074 522.953857,283.511688 519.587952,281.570740 
	C516.421875,279.744934 514.491577,282.267609 512.850098,284.728790 
	C510.483215,288.277466 509.192810,288.234894 506.935425,284.560852 
	C506.265472,283.470459 505.768829,282.273590 505.175232,281.090485 
	C502.744019,281.617310 501.064575,282.834930 499.502197,285.377045 
z"/>
<path fill="#000000" opacity="1.000000" stroke="none" 
	d="
M506.151917,332.574097 
	C505.979980,328.158661 505.943359,324.192017 505.844788,320.226898 
	C505.785217,317.830414 506.128693,315.870667 509.229187,316.005188 
	C512.081970,316.128937 513.381653,317.478363 513.234619,320.406097 
	C513.077148,323.540771 513.278503,326.694672 513.091614,329.826324 
	C512.804382,334.636353 511.087463,335.391907 506.151917,332.574097 
z"/>
<path fill="#000000" opacity="1.000000" stroke="none" 
	d="
M513.054321,216.385010 
	C513.102295,220.159241 513.025208,223.482208 513.088440,226.802521 
	C513.147766,229.922012 511.162720,230.760757 508.627930,230.965012 
	C505.537689,231.214035 505.749786,228.902115 505.675995,226.920822 
	C505.577118,224.265839 505.550690,221.608032 505.506409,218.951218 
	C505.477875,217.239441 504.237488,214.927994 506.619171,214.167191 
	C508.852966,213.453629 511.609833,212.724457 513.054321,216.385010 
z"/>
<path fill="#000000" opacity="1.000000" stroke="none" 
	d="
M505.736267,252.844849 
	C505.764404,249.703888 505.835693,247.039597 505.818787,244.375854 
	C505.803375,241.951340 506.719208,240.627136 509.365387,240.762482 
	C511.688934,240.881317 513.219910,241.656525 513.212036,244.261749 
	C513.203003,247.259018 513.205078,250.256592 513.236938,253.253662 
	C513.264404,255.845917 513.426453,258.315704 509.594055,258.330444 
	C505.853882,258.344788 505.765778,255.952866 505.736267,252.844849 
z"/>
<path fill="#000000" opacity="1.000000" stroke="none" 
	d="
M506.779358,344.925568 
	C511.814484,343.951019 513.622864,345.980347 513.223389,350.543854 
	C513.021484,352.851044 513.260742,355.193756 513.144348,357.512543 
	C513.042236,359.545898 513.637329,362.041290 509.997833,361.777344 
	C506.975739,361.558136 505.335663,360.576324 505.696960,357.290436 
	C506.143646,353.227844 504.789581,349.060577 506.779358,344.925568 
z"/>
<path fill="#000000" opacity="1.000000" stroke="none" 
	d="
M607.410889,281.842896 
	C604.326599,281.998901 601.676880,282.107941 599.027588,282.099030 
	C597.168640,282.092773 595.842346,281.400879 595.773071,279.218536 
	C595.705872,277.098602 596.835144,276.104523 598.749146,276.063049 
	C601.560059,276.002075 604.380432,276.071716 607.186951,276.244232 
	C608.532104,276.326904 609.833984,276.838226 610.106750,278.454956 
	C610.409485,280.249573 609.493164,281.262482 607.410889,281.842896 
z"/>
<path fill="#000000" opacity="1.000000" stroke="none" 
	d="
M391.092224,281.329254 
	C388.494415,281.352600 386.347565,281.400024 384.201233,281.382782 
	C383.127991,281.374176 382.263885,280.965973 382.088318,279.752686 
	C381.933838,278.685059 382.294006,277.794312 383.159302,277.160126 
	C385.982208,275.091187 397.783417,276.255829 401.299896,279.197601 
	C398.343811,281.775879 394.847321,281.178436 391.092224,281.329254 
z"/>
<path fill="#000000" opacity="1.000000" stroke="none" 
	d="
M357.509949,277.550903 
	C361.480957,276.689270 365.122406,276.868988 368.752319,277.139252 
	C370.057312,277.236450 371.587036,277.513062 371.717041,279.194580 
	C371.860199,281.045898 370.268707,281.102814 368.978333,281.321075 
	C367.186218,281.624237 365.396454,282.044708 363.591064,282.141479 
	C360.974396,282.281677 358.344666,282.177368 355.509460,282.177368 
	C355.360992,280.333862 354.815094,278.524689 357.509949,277.550903 
z"/>
<path fill="#000000" opacity="1.000000" stroke="none" 
	d="
M651.755127,277.024841 
	C653.357422,277.122467 654.526672,277.121796 655.655457,277.335327 
	C656.664978,277.526337 657.551514,278.096619 657.574402,279.278412 
	C657.600281,280.614990 656.812866,281.634094 655.551819,281.683868 
	C652.093750,281.820465 648.621826,281.836761 645.165588,281.677887 
	C643.694641,281.610229 642.832153,280.525146 642.979614,278.917786 
	C643.142883,277.138885 644.490723,276.907898 645.848389,276.884918 
	C647.665771,276.854126 649.485657,276.968018 651.755127,277.024841 
z"/>
<path fill="#000000" opacity="1.000000" stroke="none" 
	d="
M482.084412,277.421082 
	C483.946838,278.998322 484.523346,280.754028 481.985931,281.089142 
	C477.943359,281.623077 473.813782,282.097504 469.711884,281.243011 
	C468.694031,281.031006 467.681427,280.733063 467.628296,279.532928 
	C467.563416,278.065948 468.734528,277.570953 469.903503,277.416290 
	C473.824646,276.897675 477.762665,276.827942 482.084412,277.421082 
z"/>
<path fill="#000000" opacity="1.000000" stroke="none" 
	d="
M430.251984,276.719055 
	C433.007812,276.783020 435.323151,276.789398 437.626984,276.955139 
	C438.659485,277.029449 439.501617,277.660614 439.694092,278.776794 
	C439.853638,279.702301 439.311432,280.298248 438.539886,280.753113 
	C436.018494,282.239746 427.139496,280.889221 424.712219,278.576355 
	C425.735107,276.111389 428.025146,277.085571 430.251984,276.719055 
z"/>
<path fill="#000000" opacity="1.000000" stroke="none" 
	d="
M553.145386,277.798767 
	C557.200439,276.402405 561.020386,276.860901 564.800781,276.821960 
	C566.018738,276.809387 567.133484,277.245300 567.277039,278.701080 
	C567.383850,279.784241 566.951660,280.823547 565.827148,280.959961 
	C561.727905,281.457275 557.590515,281.690857 553.534851,280.749664 
	C552.223877,280.445465 551.860901,279.257721 553.145386,277.798767 
z"/>
<path fill="#000000" opacity="1.000000" stroke="none" 
	d="
M586.888916,280.346252 
	C582.885925,281.863190 579.041870,281.098267 575.273193,281.420593 
	C574.222229,281.510468 573.251221,281.187347 573.071045,279.951172 
	C572.915955,278.886688 573.300598,277.693787 574.271240,277.454315 
	C578.463806,276.420105 582.740540,276.201935 586.913147,277.465973 
	C587.993591,277.793304 587.705139,279.108368 586.888916,280.346252 
z"/>
<path fill="#000000" opacity="1.000000" stroke="none" 
	d="
M630.504150,276.892517 
	C632.348206,277.187317 634.334045,277.038269 634.286499,279.037750 
	C634.231750,281.338379 632.106934,281.144440 630.506226,281.202759 
	C628.026123,281.293152 625.538513,281.288513 623.057739,281.209991 
	C621.642517,281.165222 619.609253,281.503662 619.501221,279.489929 
	C619.381714,277.262390 621.517273,277.143890 623.125793,277.019775 
	C625.431763,276.841766 627.756653,276.909149 630.504150,276.892517 
z"/>
<path fill="#000000" opacity="1.000000" stroke="none" 
	d="
M457.240601,281.078735 
	C454.004852,281.175659 451.186554,281.234619 448.369232,281.203796 
	C447.027496,281.189117 445.546875,281.090759 445.531036,279.228912 
	C445.518555,277.761414 446.709778,277.212433 447.887665,277.163177 
	C451.026459,277.031738 454.246643,276.652161 457.295135,277.178406 
	C460.290833,277.695557 460.300903,279.449158 457.240601,281.078735 
z"/>
<path fill="#000000" opacity="1.000000" stroke="none" 
	d="
M339.331787,281.276733 
	C337.396637,280.998779 335.057007,281.855957 334.882050,279.552826 
	C334.691559,277.044861 337.075134,277.051971 338.836548,276.954254 
	C341.130432,276.827026 343.442444,276.854797 345.737152,276.984344 
	C346.949310,277.052795 347.969971,277.700226 347.973663,279.136719 
	C347.977448,280.616943 346.919250,281.106323 345.691528,281.172485 
	C343.721771,281.278656 341.744904,281.253876 339.331787,281.276733 
z"/>
<path fill="#000000" opacity="1.000000" stroke="none" 
	d="
M415.641052,281.146362 
	C413.071442,281.095947 410.937134,281.102936 408.822571,280.902008 
	C407.800995,280.804993 407.012085,280.115234 407.028931,278.928284 
	C407.045715,277.745056 407.852509,277.088684 408.871460,276.994507 
	C411.151947,276.783722 413.450073,276.666656 415.739685,276.684265 
	C417.310791,276.696320 419.474792,276.415131 419.642609,278.631775 
	C419.811676,280.864838 417.641754,280.786713 415.641052,281.146362 
z"/>
<path fill="#000000" opacity="1.000000" stroke="none" 
	d="
M537.729126,281.576782 
	C536.012756,281.759216 534.464539,281.915680 534.245239,280.184265 
	C534.033264,278.510712 535.489380,277.917969 536.839539,277.971649 
	C539.087219,278.060883 541.691162,277.084717 543.484680,279.539490 
	C542.110107,281.796814 539.864319,280.953400 537.729126,281.576782 
z"/>
<path fill="#000000" opacity="1.000000" stroke="none" 
	d="
M673.491699,279.624786 
	C671.021057,282.540924 670.122437,282.632538 665.723633,280.513153 
	C667.940552,277.347015 670.603394,278.249176 673.491699,279.624786 
z"/>
<path fill="#000000" opacity="1.000000" stroke="none" 
	d="
M400.714355,493.363281 
	C397.900177,514.599792 383.787323,520.305725 363.723267,514.886597 
	C335.530121,507.271820 319.195068,476.864685 317.856079,456.108490 
	C317.806091,455.333344 318.071533,454.537842 318.274139,453.193176 
	C325.343658,455.456757 332.138123,457.495026 338.826447,459.836548 
	C341.798248,460.876984 341.923676,463.865234 342.313263,466.522308 
	C344.314270,480.169708 352.316437,489.300751 364.059448,491.372803 
	C369.417511,492.318268 373.620483,490.235535 374.882996,484.982819 
	C379.150360,467.228455 371.179382,449.088623 356.472137,442.770538 
	C351.352997,440.571381 346.763977,440.536072 342.960114,445.140747 
	C341.251984,447.208527 339.672485,447.522919 337.519684,445.650269 
	C333.836029,442.445953 329.520203,440.243774 324.914276,438.684296 
	C322.724976,437.943024 321.633331,436.746368 321.692413,434.342407 
	C322.322357,408.719696 322.903717,383.095764 323.499451,357.472198 
	C323.518433,356.655396 323.414337,355.796936 324.685547,354.875183 
	C330.663116,356.981812 336.116364,360.853363 341.855438,364.014526 
	C358.197449,373.016083 375.056976,380.963196 391.807953,389.128815 
	C395.084839,390.726196 396.547119,392.483765 396.370056,396.265503 
	C396.044525,403.218414 396.277191,410.197449 396.277191,418.417633 
	C378.709839,411.511322 363.000580,403.452393 346.715546,394.521820 
	C346.095123,402.703735 345.505432,410.480377 344.866791,418.902191 
	C352.624207,418.369568 359.454803,419.915558 365.876160,423.296295 
	C387.139587,434.491211 397.855164,452.555786 400.338379,476.008759 
	C400.934021,481.634338 401.650299,487.261261 400.714355,493.363281 
z"/>
<path fill="#000000" opacity="1.000000" stroke="none" 
	d="
M231.801224,359.310120 
	C227.855362,357.144989 228.678223,354.213745 230.207825,350.554138 
	C233.075638,353.350067 233.435074,356.071960 231.801224,359.310120 
z"/>
<path fill="#000000" opacity="1.000000" stroke="none" 
	d="
M706.866943,428.416656 
	C702.942444,419.455994 698.401001,417.412781 689.653259,420.539215 
	C683.363098,422.787323 678.323120,426.960785 674.080627,431.928223 
	C667.584045,439.534912 658.372559,442.080383 649.954956,446.198730 
	C647.848450,443.607971 649.522339,441.362244 649.664673,439.195190 
	C651.115479,417.106354 652.825500,395.024963 652.646240,372.872650 
	C652.609131,368.284454 654.413391,365.981171 658.382324,364.172516 
	C680.984436,353.872925 702.537231,341.562805 724.198120,329.465210 
	C725.925049,328.500671 727.552795,327.279694 729.617859,327.120972 
	C731.499390,328.220520 731.004883,330.033203 730.969788,331.615723 
	C730.807129,338.939667 730.505615,346.260925 730.388489,353.585297 
	C730.348755,356.067627 729.576782,357.616699 727.028198,358.358124 
	C712.036865,362.719086 698.875916,371.180847 684.681274,377.248871 
	C676.572754,380.715149 673.911316,385.204834 675.273621,393.261566 
	C675.991272,397.505585 673.584473,401.761719 675.309021,407.230896 
	C680.040344,401.648071 685.647156,398.253174 691.310913,394.948669 
	C695.649780,392.417175 700.133301,390.194794 705.245605,389.782684 
	C720.298889,388.569153 730.917603,398.406433 732.252563,414.780579 
	C735.269775,451.789154 710.867371,483.088623 678.412903,493.469299 
	C660.459106,499.211853 646.641602,488.752899 646.460754,469.891937 
	C646.443237,468.069183 646.167664,465.915741 648.165894,465.016541 
	C655.405212,461.758636 662.277893,457.612396 669.657654,455.549164 
	C671.631897,456.460480 671.325256,458.028625 671.684448,459.226349 
	C674.177673,467.540710 678.612366,469.733215 686.885071,466.651245 
	C702.396301,460.872681 710.660278,445.315186 706.866943,428.416656 
z"/>
<path fill="#000000" opacity="1.000000" stroke="none" 
	d="
M578.542419,409.504517 
	C585.651855,403.565704 593.278015,399.199066 601.516724,395.844147 
	C611.386108,391.825256 621.499695,390.049500 630.425659,397.177917 
	C639.631470,404.529846 640.363831,415.336304 638.799561,426.034790 
	C637.293884,436.332245 632.607605,445.426117 627.398560,454.521362 
	C615.132019,475.939331 599.728333,495.244507 586.638977,517.185669 
	C604.497986,507.078217 621.748230,497.367645 639.842651,488.627869 
	C642.225220,492.823944 640.538208,496.934082 641.291199,500.697235 
	C643.215820,510.315887 638.776550,515.156433 630.253723,519.174988 
	C603.735229,531.678833 578.387573,546.457275 552.787842,560.728638 
	C551.815125,561.270996 550.967529,562.254761 548.978394,561.811279 
	C549.543213,551.666199 548.109558,541.484680 554.202576,531.815857 
	C567.445984,510.800201 581.804321,490.569336 595.983887,470.204620 
	C601.133118,462.809357 605.800598,455.132874 609.494568,446.894958 
	C611.772766,441.814362 613.055603,436.551514 612.774658,430.912292 
	C612.395264,423.299133 607.681763,419.693970 600.377441,421.620636 
	C589.526184,424.482880 577.978333,436.415222 577.615601,447.660980 
	C577.270752,458.351471 573.434998,464.544434 562.858276,466.665894 
	C558.517517,467.536499 554.982239,470.857910 549.751648,471.971436 
	C553.226685,448.019135 559.133667,425.902252 578.542419,409.504517 
z"/>
<path fill="#000000" opacity="1.000000" stroke="none" 
	d="
M464.353699,620.514282 
	C466.477753,621.781921 468.608063,622.608154 468.523865,625.321411 
	C466.665985,627.073242 464.608521,626.469421 463.028229,625.393494 
	C455.965363,620.585144 447.442078,618.995422 440.149902,614.775696 
	C438.295166,613.702454 434.197632,613.531616 435.919830,610.051453 
	C437.402100,607.056213 440.033783,609.688843 441.931763,610.502258 
	C449.340515,613.677490 456.665100,617.049133 464.353699,620.514282 
z"/>
<path fill="#000000" opacity="1.000000" stroke="none" 
	d="
M349.212463,572.350708 
	C345.310089,570.574585 341.730896,568.893982 338.201782,567.114075 
	C336.468750,566.240051 335.015625,564.979492 336.280334,562.830200 
	C337.495789,560.764771 339.148254,561.940063 340.590820,562.635010 
	C343.708099,564.136536 346.868195,565.574768 349.866028,567.291626 
	C352.909271,569.034485 352.970551,570.900696 349.212463,572.350708 
z"/>
<path fill="#000000" opacity="1.000000" stroke="none" 
	d="
M361.117554,577.942139 
	C359.734406,577.274292 358.676178,576.810791 357.655426,576.275879 
	C356.166351,575.495422 355.332977,574.370789 356.213989,572.669983 
	C357.140747,570.880920 358.620453,571.249634 360.042969,571.905579 
	C363.632965,573.560974 367.218933,575.227966 370.764221,576.976013 
	C372.090546,577.629944 373.596069,578.422363 372.518127,580.345581 
	C371.623352,581.942078 370.182587,582.026367 368.664459,581.366577 
	C366.248016,580.316345 363.859497,579.201965 361.117554,577.942139 
z"/>
<path fill="#000000" opacity="1.000000" stroke="none" 
	d="
M396.077515,591.612549 
	C396.892975,589.804077 397.997589,589.423279 399.447205,590.127991 
	C403.166229,591.936035 406.880981,593.753113 410.583069,595.595459 
	C411.685364,596.143982 412.608398,596.933350 412.018066,598.319397 
	C411.536163,599.450989 410.403748,600.529541 409.324646,600.086182 
	C404.457642,598.086426 398.873718,597.163025 396.077515,591.612549 
z"/>
<path fill="#000000" opacity="1.000000" stroke="none" 
	d="
M389.078857,590.993347 
	C385.317474,589.242859 381.897003,587.616028 378.527527,585.889709 
	C377.046204,585.130676 375.408081,584.186157 376.452209,582.116821 
	C377.558594,579.924133 379.276978,581.084412 380.710815,581.729126 
	C384.163788,583.281311 387.574127,584.929626 390.981201,586.581360 
	C391.538391,586.851501 391.991486,587.336304 392.461609,587.697998 
	C392.332886,589.792236 391.374420,590.881714 389.078857,590.993347 
z"/>
<path fill="#000000" opacity="1.000000" stroke="none" 
	d="
M316.116821,553.412292 
	C319.267914,552.406616 330.459595,556.777832 331.576691,559.085754 
	C332.509247,561.012390 331.261780,561.900452 329.722656,562.310608 
	C327.033295,563.027344 317.002502,556.703125 316.116821,553.412292 
z"/>
<path fill="#000000" opacity="1.000000" stroke="none" 
	d="
M280.362427,534.706665 
	C283.848297,536.338806 287.005188,537.820618 290.135223,539.357239 
	C291.528168,540.041016 292.937408,540.890747 291.929382,542.767273 
	C291.061981,544.382080 289.575012,544.488342 288.056519,543.751953 
	C284.771088,542.158630 281.503265,540.527283 278.256805,538.856079 
	C276.993408,538.205750 276.049805,537.247437 276.705902,535.658936 
	C277.365479,534.062073 278.626312,534.049927 280.362427,534.706665 
z"/>
<path fill="#000000" opacity="1.000000" stroke="none" 
	d="
M304.689453,551.503662 
	C302.108734,550.219727 299.831573,549.179749 297.654297,547.961121 
	C296.436493,547.279602 295.553223,546.182556 296.300629,544.646912 
	C297.073517,543.058960 298.446075,543.266357 299.740875,543.811035 
	C302.810089,545.102295 305.892517,546.378479 308.875580,547.851196 
	C310.348358,548.578308 312.886597,548.988525 311.611511,551.611816 
	C310.554504,553.786560 308.662781,553.317871 306.864532,552.476562 
	C306.261322,552.194336 305.645050,551.940063 304.689453,551.503662 
z"/>
<path fill="#000000" opacity="1.000000" stroke="none" 
	d="
M416.171021,602.722717 
	C415.732819,599.261108 417.492676,599.061584 419.734314,599.992310 
	C423.092072,601.386292 426.386108,602.934753 429.697845,604.438293 
	C431.153748,605.099304 432.372375,605.927368 431.470398,607.832764 
	C430.652954,609.559570 429.210602,609.773071 427.727966,609.030701 
	C423.899384,607.113586 419.774078,605.749207 416.171021,602.722717 
z"/>
<path fill="#000000" opacity="1.000000" stroke="none" 
	d="
M261.977692,527.109375 
	C265.054260,528.415955 267.795593,529.598450 270.491058,530.877747 
	C271.405396,531.311584 272.197845,532.057739 271.841736,533.231079 
	C271.534851,534.242371 270.733307,535.148804 269.683258,534.949097 
	C265.848816,534.219849 262.400940,532.515381 259.944916,529.464661 
	C258.766205,528.000610 259.906097,527.060242 261.977692,527.109375 
z"/>
<path fill="#000000" opacity="1.000000" stroke="none" 
	d="
M249.443359,521.178955 
	C251.828064,522.799011 251.847626,523.971802 249.139526,524.285034 
	C246.610580,524.577637 244.400101,523.757080 242.454437,521.685486 
	C244.792816,519.242493 246.990906,520.574463 249.443359,521.178955 
z"/>
<path fill="#000000" opacity="1.000000" stroke="none" 
	d="
M567.549438,614.098755 
	C569.435486,609.589539 574.024231,607.174988 578.208008,608.049072 
	C579.211792,608.258789 580.193115,608.553467 580.487244,609.643982 
	C580.782166,610.737366 580.154724,611.628357 579.308533,612.165588 
	C575.748108,614.426758 572.003906,615.924438 567.549438,614.098755 
z"/>
<path fill="#000000" opacity="1.000000" stroke="none" 
	d="
M551.457764,623.500610 
	C549.068298,624.467224 547.142883,626.158813 544.546143,623.622253 
	C551.960876,622.847595 556.656189,615.464111 565.625732,615.507507 
	C562.397766,622.195068 556.380493,621.467957 551.457764,623.500610 
z"/>
<path fill="#000000" opacity="1.000000" stroke="none" 
	d="
M591.052124,605.137634 
	C588.459167,605.709595 585.782837,609.664062 584.083923,606.051331 
	C582.310913,602.281006 586.989502,602.693909 588.956482,601.624817 
	C590.799011,600.623352 592.975586,599.240845 595.276917,601.009155 
	C595.234436,603.761047 592.879211,603.948364 591.052124,605.137634 
z"/>
<path fill="#000000" opacity="1.000000" stroke="none" 
	d="
M693.386230,546.390869 
	C695.157471,546.118652 696.360657,546.353210 697.022583,548.350098 
	C695.276306,550.875854 692.077881,551.541443 689.503235,553.062683 
	C688.342773,553.748291 687.253784,553.289612 686.716553,551.978210 
	C686.208435,550.737854 686.536621,549.636047 687.693054,549.017395 
	C689.425781,548.090332 691.246582,547.328064 693.386230,546.390869 
z"/>
<path fill="#000000" opacity="1.000000" stroke="none" 
	d="
M620.225586,585.052002 
	C622.013489,584.838196 623.159607,585.243164 623.963135,586.606934 
	C622.931030,589.487366 619.997742,589.801697 617.858276,591.102905 
	C616.455933,591.955872 614.855530,591.852966 614.127014,590.140381 
	C613.479431,588.617981 614.672791,587.695190 615.859070,587.044617 
	C617.149048,586.337219 618.514282,585.766968 620.225586,585.052002 
z"/>
<path fill="#000000" opacity="1.000000" stroke="none" 
	d="
M702.548889,541.531494 
	C705.775635,539.606323 708.636230,537.101685 712.828308,539.215454 
	C710.983826,542.613647 707.909790,543.368896 705.341736,544.595825 
	C702.880005,545.771973 702.114258,544.111206 702.548889,541.531494 
z"/>
<path fill="#000000" opacity="1.000000" stroke="none" 
	d="
M666.368042,564.618530 
	C664.195679,566.071106 662.267761,567.397217 660.162292,568.316650 
	C658.165894,569.188477 656.608582,568.207520 657.172607,566.053894 
	C657.770081,563.772400 660.284302,563.224365 662.261230,562.513489 
	C664.034241,561.875977 665.895874,561.863098 666.368042,564.618530 
z"/>
<path fill="#000000" opacity="1.000000" stroke="none" 
	d="
M643.129761,575.738770 
	C643.249268,570.973694 646.903442,569.030029 652.731079,570.936096 
	C649.998657,573.931274 647.723938,576.664429 643.129761,575.738770 
z"/>
<path fill="#000000" opacity="1.000000" stroke="none" 
	d="
M607.029968,593.023071 
	C608.586304,593.072876 609.883850,593.167358 609.590210,594.844849 
	C609.321777,596.378418 602.697754,599.850769 601.256042,599.200684 
	C599.320862,598.327881 599.441101,596.795532 600.923462,595.801941 
	C602.662781,594.636230 604.731323,593.961792 607.029968,593.023071 
z"/>
<path fill="#000000" opacity="1.000000" stroke="none" 
	d="
M722.425842,530.382141 
	C724.003296,530.070740 725.174255,530.253052 725.706970,531.480225 
	C726.298706,532.843811 725.242859,533.692139 724.262390,534.231262 
	C722.304504,535.307922 720.671387,537.264526 718.135803,536.911499 
	C717.296387,536.794617 716.606873,536.014954 716.795227,535.116943 
	C717.386230,532.299561 719.944336,531.611328 722.425842,530.382141 
z"/>
<path fill="#000000" opacity="1.000000" stroke="none" 
	d="
M676.598022,559.814636 
	C674.660278,560.558533 672.716309,562.337402 671.527527,560.002991 
	C670.297852,557.588135 672.968323,557.086182 674.394165,556.298828 
	C676.413147,555.183899 678.598877,553.446716 680.843445,555.942566 
	C680.447327,558.448730 678.343018,558.656738 676.598022,559.814636 
z"/>
<path fill="#000000" opacity="1.000000" stroke="none" 
	d="
M634.594116,582.751099 
	C632.447754,583.756531 630.239441,584.866516 629.303101,582.247986 
	C628.318604,579.494812 631.254272,579.360901 632.816772,578.567627 
	C634.702637,577.610413 636.747986,577.066589 638.595764,578.754150 
	C638.319214,581.197632 636.212097,581.469727 634.594116,582.751099 
z"/>
<path fill="#000000" opacity="1.000000" stroke="none" 
	d="
M734.361450,523.966370 
	C736.794922,523.634888 738.453613,524.177124 738.609131,526.513794 
	C738.724487,528.247620 737.467102,529.088745 735.896118,529.522461 
	C734.410156,529.932678 732.665771,530.310791 731.877441,528.810242 
	C730.751709,526.667603 732.031494,525.098267 734.361450,523.966370 
z"/>
<path fill="#000000" opacity="1.000000" stroke="none" 
	d="
M145.912842,555.510864 
	C146.927780,557.677185 147.497162,559.521851 146.694962,561.553406 
	C145.696991,564.080872 144.036789,565.820374 141.192688,565.678894 
	C138.229141,565.531372 137.603027,563.200684 137.293762,560.799072 
	C137.168411,559.825623 137.034180,558.804688 137.191986,557.853088 
	C137.561996,555.621887 137.525818,553.038696 140.212708,552.085205 
	C143.124619,551.051880 144.233322,553.530212 145.912842,555.510864 
z"/>
<path fill="#000000" opacity="1.000000" stroke="none" 
	d="
M855.112976,252.056030 
	C856.777893,250.500717 858.103516,250.674042 859.122375,252.201431 
	C860.501892,254.269363 860.818726,256.564514 859.657532,258.796478 
	C858.944458,260.167114 857.588989,261.000244 855.968140,260.939301 
	C853.841736,260.859375 853.015625,259.391327 853.298279,257.553101 
	C853.569885,255.785843 854.329529,254.093613 855.112976,252.056030 
z"/>
<path fill="#000000" opacity="1.000000" stroke="none" 
	d="
M861.164368,564.291504 
	C861.330811,569.073792 858.466919,569.754150 855.204590,569.041687 
	C851.708801,568.278320 851.592957,565.471436 852.650024,562.716125 
	C853.460205,560.604309 854.307617,557.630615 856.917419,557.796753 
	C860.129822,558.001343 860.107117,561.541992 861.164368,564.291504 
z"/>
<path fill="#000000" opacity="1.000000" stroke="none" 
	d="
M506.734863,786.092041 
	C510.264618,784.994568 511.074066,786.935181 511.380737,789.563416 
	C511.723541,792.501343 512.637451,795.695374 509.357758,797.528259 
	C507.077454,798.802673 505.488403,797.309570 504.896027,795.181274 
	C504.025513,792.053833 504.245941,788.968994 506.734863,786.092041 
z"/>
</svg>